STARTFONT 2.1
COMMENT Font grabbed from the X server.
FONT -Misc-Stlarch_wb-Medium-R-Normal--10-100-75-75-C-80-ISO10646-1
SIZE 10 75 75
FONTBOUNDINGBOX 10 10 0 -2
STARTPROPERTIES 23
FONTNAME_REGISTRY ""
FOUNDRY "Misc"
FAMILY_NAME "Stlarch_wb"
WEIGHT_NAME "Medium"
SLANT "R"
SETWIDTH_NAME "Normal"
ADD_STYLE_NAME ""
PIXEL_SIZE 10
POINT_SIZE 100
RESOLUTION_X 75
RESOLUTION_Y 75
SPACING "C"
AVERAGE_WIDTH 80
CHARSET_REGISTRY "ISO10646"
CHARSET_ENCODING "1"
COPYRIGHT "GPLv2"
WEIGHT 10
_GBDFED_INFO "Edited with gbdfed 1.6."
X_HEIGHT 3
QUAD_WIDTH 8
RESOLUTION 103
FONT_ASCENT 8
FONT_DESCENT 2
ENDPROPERTIES
CHARS 429
STARTCHAR char57344
ENCODING 57344
SWIDTH 960 0
DWIDTH 10 0
BBX 10 10 0 -2
BITMAP
0000
7F80
7F80
7F80
7F80
7F80
7F80
7F80
7F80
0000
ENDCHAR
STARTCHAR char57345
ENCODING 57345
SWIDTH 960 0
DWIDTH 10 0
BBX 10 10 0 -2
BITMAP
0000
7F80
7F80
6180
6180
6180
6180
7F80
7F80
0000
ENDCHAR
STARTCHAR char57346
ENCODING 57346
SWIDTH 960 0
DWIDTH 10 0
BBX 10 10 0 -2
BITMAP
0000
7B80
7B80
7800
7B80
7B80
7800
7B80
7B80
0000
ENDCHAR
STARTCHAR char57347
ENCODING 57347
SWIDTH 960 0
DWIDTH 10 0
BBX 10 10 0 -2
BITMAP
0000
7F80
7F80
7F80
7F80
0000
6D80
6D80
6D80
0000
ENDCHAR
STARTCHAR char57348
ENCODING 57348
SWIDTH 960 0
DWIDTH 10 0
BBX 10 10 0 -2
BITMAP
0000
7F80
7F80
7F80
7F80
0000
7F80
0000
7F80
0000
ENDCHAR
STARTCHAR char57349
ENCODING 57349
SWIDTH 960 0
DWIDTH 10 0
BBX 10 10 0 -2
BITMAP
0000
6D80
6D80
0000
6D80
6D80
0000
6D80
6D80
0000
ENDCHAR
STARTCHAR char57350
ENCODING 57350
SWIDTH 960 0
DWIDTH 10 0
BBX 10 10 0 -2
BITMAP
0000
7B80
7B80
7B80
7B80
0380
7F80
7F80
7F80
0000
ENDCHAR
STARTCHAR char57351
ENCODING 57351
SWIDTH 960 0
DWIDTH 10 0
BBX 10 10 0 -2
BITMAP
0000
7B80
7B80
7B80
7B80
7800
7A80
7A00
7A80
0000
ENDCHAR
STARTCHAR char57352
ENCODING 57352
SWIDTH 960 0
DWIDTH 10 0
BBX 10 10 0 -2
BITMAP
0000
7B80
7B80
7B80
7B80
7800
7A80
7880
7A80
0000
ENDCHAR
STARTCHAR char57353
ENCODING 57353
SWIDTH 960 0
DWIDTH 10 0
BBX 10 10 0 -2
BITMAP
0000
7B80
7B80
7800
7B80
0380
7800
7B80
7B80
0000
ENDCHAR
STARTCHAR char57354
ENCODING 57354
SWIDTH 960 0
DWIDTH 10 0
BBX 10 10 0 -2
BITMAP
0000
7B80
7B80
7B80
7B80
0000
6D80
6D80
6D80
0000
ENDCHAR
STARTCHAR char57355
ENCODING 57355
SWIDTH 960 0
DWIDTH 10 0
BBX 10 10 0 -2
BITMAP
0000
0C00
0A00
4900
2A00
1C00
2A00
4900
0A00
0C00
ENDCHAR
STARTCHAR char57356
ENCODING 57356
SWIDTH 960 0
DWIDTH 10 0
BBX 10 10 0 -2
BITMAP
0400
0500
1500
1500
1600
0C00
0400
0400
0000
0000
ENDCHAR
STARTCHAR char57357
ENCODING 57357
SWIDTH 960 0
DWIDTH 10 0
BBX 10 10 0 -2
BITMAP
1800
1800
5A00
9900
9900
8100
4200
3C00
0000
0000
ENDCHAR
STARTCHAR char57358
ENCODING 57358
SWIDTH 960 0
DWIDTH 10 0
BBX 10 10 0 -2
BITMAP
1800
1800
3C00
3C00
7E00
6600
E700
C300
8100
0000
ENDCHAR
STARTCHAR char57359
ENCODING 57359
SWIDTH 960 0
DWIDTH 10 0
BBX 10 10 0 -2
BITMAP
3C00
6E00
FC00
F800
F000
FF00
7E00
3C00
0000
0000
ENDCHAR
STARTCHAR char57360
ENCODING 57360
SWIDTH 960 0
DWIDTH 10 0
BBX 10 10 0 -2
BITMAP
FF00
FF00
FF00
E700
E700
FF00
FF00
FF00
0000
0000
ENDCHAR
STARTCHAR char57361
ENCODING 57361
SWIDTH 960 0
DWIDTH 10 0
BBX 10 10 0 -2
BITMAP
FF00
F900
F900
FF00
FF00
9F00
9F00
FF00
0000
0000
ENDCHAR
STARTCHAR char57362
ENCODING 57362
SWIDTH 960 0
DWIDTH 10 0
BBX 10 10 0 -2
BITMAP
FF00
F900
F900
E700
E700
9F00
9F00
FF00
0000
0000
ENDCHAR
STARTCHAR char57363
ENCODING 57363
SWIDTH 960 0
DWIDTH 10 0
BBX 10 10 0 -2
BITMAP
FF00
9900
9900
FF00
FF00
9900
9900
FF00
0000
0000
ENDCHAR
STARTCHAR char57364
ENCODING 57364
SWIDTH 960 0
DWIDTH 10 0
BBX 10 10 0 -2
BITMAP
FF00
9900
9900
E700
E700
9900
9900
FF00
0000
0000
ENDCHAR
STARTCHAR char57365
ENCODING 57365
SWIDTH 960 0
DWIDTH 10 0
BBX 10 10 0 -2
BITMAP
3C00
6E00
EF00
EF00
E100
FF00
7E00
3C00
0000
0000
ENDCHAR
STARTCHAR char57366
ENCODING 57366
SWIDTH 960 0
DWIDTH 10 0
BBX 10 10 0 -2
BITMAP
3C00
4200
9100
9100
9D00
8100
4200
3C00
0000
0000
ENDCHAR
STARTCHAR char57367
ENCODING 57367
SWIDTH 960 0
DWIDTH 10 0
BBX 10 10 0 -2
BITMAP
FF00
EF00
EF00
EF00
E100
FF00
FF00
FF00
0000
0000
ENDCHAR
STARTCHAR char57368
ENCODING 57368
SWIDTH 960 0
DWIDTH 10 0
BBX 10 10 0 -2
BITMAP
FF00
8100
9100
9100
9D00
8100
8100
FF00
0000
0000
ENDCHAR
STARTCHAR char57369
ENCODING 57369
SWIDTH 960 0
DWIDTH 10 0
BBX 10 10 0 -2
BITMAP
1800
2C00
6E00
EF00
E100
7E00
3C00
1800
0000
0000
ENDCHAR
STARTCHAR char57370
ENCODING 57370
SWIDTH 960 0
DWIDTH 10 0
BBX 10 10 0 -2
BITMAP
1800
2400
5200
9100
9D00
4200
2400
1800
0000
0000
ENDCHAR
STARTCHAR char57371
ENCODING 57371
SWIDTH 960 0
DWIDTH 10 0
BBX 10 10 0 -2
BITMAP
1300
0700
4E00
1400
6800
9000
9000
6000
0000
0000
ENDCHAR
STARTCHAR char57372
ENCODING 57372
SWIDTH 960 0
DWIDTH 10 0
BBX 10 10 0 -2
BITMAP
0900
1C00
1D00
1C00
1500
2200
2200
1C00
0000
0000
ENDCHAR
STARTCHAR char57373
ENCODING 57373
SWIDTH 960 0
DWIDTH 10 0
BBX 10 10 0 -2
BITMAP
0C00
0F00
0C00
0F00
0C00
1E00
1E00
0C00
0000
0000
ENDCHAR
STARTCHAR char57374
ENCODING 57374
SWIDTH 960 0
DWIDTH 10 0
BBX 10 10 0 -2
BITMAP
3E00
7F00
4100
4900
4500
4900
4100
3E00
0000
0000
ENDCHAR
STARTCHAR char57375
ENCODING 57375
SWIDTH 960 0
DWIDTH 10 0
BBX 10 10 0 -2
BITMAP
3E00
7F00
4100
5D00
4100
5D00
4100
3E00
0000
0000
ENDCHAR
STARTCHAR char57376
ENCODING 57376
SWIDTH 960 0
DWIDTH 10 0
BBX 10 10 0 -2
BITMAP
5500
0000
7F00
7F00
7F00
7F00
0000
5500
0000
0000
ENDCHAR
STARTCHAR char57377
ENCODING 57377
SWIDTH 960 0
DWIDTH 10 0
BBX 10 10 0 -2
BITMAP
DB00
0000
FF00
FF00
FF00
FF00
0000
DB00
0000
0000
ENDCHAR
STARTCHAR char57378
ENCODING 57378
SWIDTH 960 0
DWIDTH 10 0
BBX 10 10 0 -2
BITMAP
C300
BD00
7E00
7E00
7E00
7E00
BD00
C300
0000
0000
ENDCHAR
STARTCHAR char57379
ENCODING 57379
SWIDTH 960 0
DWIDTH 10 0
BBX 10 10 0 -2
BITMAP
0000
6300
5D00
3E00
3E00
3E00
5D00
6300
0000
0000
ENDCHAR
STARTCHAR char57380
ENCODING 57380
SWIDTH 960 0
DWIDTH 10 0
BBX 10 10 0 -2
BITMAP
8100
7E00
7E00
7E00
7E00
7E00
7E00
8100
0000
0000
ENDCHAR
STARTCHAR char57381
ENCODING 57381
SWIDTH 960 0
DWIDTH 10 0
BBX 10 10 0 -2
BITMAP
0000
4100
3E00
3E00
3E00
3E00
3E00
4100
0000
0000
ENDCHAR
STARTCHAR char57382
ENCODING 57382
SWIDTH 960 0
DWIDTH 10 0
BBX 10 10 0 -2
BITMAP
DB00
C300
3C00
BD00
BD00
3C00
C300
DB00
0000
0000
ENDCHAR
STARTCHAR char57383
ENCODING 57383
SWIDTH 960 0
DWIDTH 10 0
BBX 10 10 0 -2
BITMAP
4000
5F00
7C00
6600
6600
3E00
FA00
0200
0000
0000
ENDCHAR
STARTCHAR char57384
ENCODING 57384
SWIDTH 960 0
DWIDTH 10 0
BBX 10 10 0 -2
BITMAP
0000
5500
0000
7F00
7F00
7F00
0000
5500
0000
0000
ENDCHAR
STARTCHAR char57385
ENCODING 57385
SWIDTH 960 0
DWIDTH 10 0
BBX 10 10 0 -2
BITMAP
3E00
4100
4100
4100
7F00
7F00
7F00
7F00
0000
0000
ENDCHAR
STARTCHAR char57386
ENCODING 57386
SWIDTH 960 0
DWIDTH 10 0
BBX 10 10 0 -2
BITMAP
0000
7F00
5D00
4100
7F00
5D00
4100
7F00
0000
0000
ENDCHAR
STARTCHAR char57387
ENCODING 57387
SWIDTH 960 0
DWIDTH 10 0
BBX 10 10 0 -2
BITMAP
FF00
BD00
8100
FF00
BD00
8100
8100
FF00
0000
0000
ENDCHAR
STARTCHAR char57388
ENCODING 57388
SWIDTH 960 0
DWIDTH 10 0
BBX 10 10 0 -2
BITMAP
3E00
6300
5D00
5D00
5D00
6300
3E00
4100
0000
0000
ENDCHAR
STARTCHAR char57389
ENCODING 57389
SWIDTH 960 0
DWIDTH 10 0
BBX 10 10 0 -2
BITMAP
F800
8400
F200
8900
E500
9500
D500
FF00
0000
0000
ENDCHAR
STARTCHAR char57390
ENCODING 57390
SWIDTH 960 0
DWIDTH 10 0
BBX 10 10 0 -2
BITMAP
0E00
0E00
0000
1E00
0E00
0E00
0E00
1F00
0000
0000
ENDCHAR
STARTCHAR char57391
ENCODING 57391
SWIDTH 960 0
DWIDTH 10 0
BBX 10 10 0 -2
BITMAP
1E00
1E00
0000
3E00
1E00
1E00
1E00
3F00
0000
0000
ENDCHAR
STARTCHAR char57392
ENCODING 57392
SWIDTH 960 0
DWIDTH 10 0
BBX 10 10 0 -2
BITMAP
0C00
3F00
2100
2100
2100
2100
2100
3F00
0000
0000
ENDCHAR
STARTCHAR char57393
ENCODING 57393
SWIDTH 960 0
DWIDTH 10 0
BBX 10 10 0 -2
BITMAP
0C00
3F00
2100
2100
2900
2D00
2100
3F00
0000
0000
ENDCHAR
STARTCHAR char57394
ENCODING 57394
SWIDTH 960 0
DWIDTH 10 0
BBX 10 10 0 -2
BITMAP
0C00
3F00
2100
2900
2D00
2D00
2100
3F00
0000
0000
ENDCHAR
STARTCHAR char57395
ENCODING 57395
SWIDTH 960 0
DWIDTH 10 0
BBX 10 10 0 -2
BITMAP
0C00
3F00
2100
2D00
2D00
2D00
2100
3F00
0000
0000
ENDCHAR
STARTCHAR char57396
ENCODING 57396
SWIDTH 960 0
DWIDTH 10 0
BBX 10 10 0 -2
BITMAP
1C00
7F00
4100
4100
4100
4100
4100
7F00
0000
0000
ENDCHAR
STARTCHAR char57397
ENCODING 57397
SWIDTH 960 0
DWIDTH 10 0
BBX 10 10 0 -2
BITMAP
1C00
7F00
4100
4100
5100
5900
4100
7F00
0000
0000
ENDCHAR
STARTCHAR char57398
ENCODING 57398
SWIDTH 960 0
DWIDTH 10 0
BBX 10 10 0 -2
BITMAP
1C00
7F00
4100
5100
5900
5D00
4100
7F00
0000
0000
ENDCHAR
STARTCHAR char57399
ENCODING 57399
SWIDTH 960 0
DWIDTH 10 0
BBX 10 10 0 -2
BITMAP
1C00
7F00
4100
5D00
5D00
5D00
4100
7F00
0000
0000
ENDCHAR
STARTCHAR char57400
ENCODING 57400
SWIDTH 960 0
DWIDTH 10 0
BBX 10 10 0 -2
BITMAP
0000
FE00
8200
8300
8300
8200
FE00
0000
0000
0000
ENDCHAR
STARTCHAR char57401
ENCODING 57401
SWIDTH 960 0
DWIDTH 10 0
BBX 10 10 0 -2
BITMAP
0000
FE00
8200
A300
B300
8200
FE00
0000
0000
0000
ENDCHAR
STARTCHAR char57402
ENCODING 57402
SWIDTH 960 0
DWIDTH 10 0
BBX 10 10 0 -2
BITMAP
0000
FE00
8200
B300
BB00
8200
FE00
0000
0000
0000
ENDCHAR
STARTCHAR char57403
ENCODING 57403
SWIDTH 960 0
DWIDTH 10 0
BBX 10 10 0 -2
BITMAP
0000
FE00
8200
BB00
BB00
8200
FE00
0000
0000
0000
ENDCHAR
STARTCHAR char57404
ENCODING 57404
SWIDTH 960 0
DWIDTH 10 0
BBX 10 10 0 -2
BITMAP
0000
FE00
8200
8300
8300
8300
8200
FE00
0000
0000
ENDCHAR
STARTCHAR char57405
ENCODING 57405
SWIDTH 960 0
DWIDTH 10 0
BBX 10 10 0 -2
BITMAP
0000
FE00
8200
8300
A300
B300
8200
FE00
0000
0000
ENDCHAR
STARTCHAR char57406
ENCODING 57406
SWIDTH 960 0
DWIDTH 10 0
BBX 10 10 0 -2
BITMAP
0000
FE00
8200
A300
B300
BB00
8200
FE00
0000
0000
ENDCHAR
STARTCHAR char57407
ENCODING 57407
SWIDTH 960 0
DWIDTH 10 0
BBX 10 10 0 -2
BITMAP
0000
FE00
8200
BB00
BB00
BB00
8200
FE00
0000
0000
ENDCHAR
STARTCHAR char57408
ENCODING 57408
SWIDTH 960 0
DWIDTH 10 0
BBX 10 10 0 -2
BITMAP
0200
0400
0C00
1800
1F00
3E00
0600
0C00
0800
1000
ENDCHAR
STARTCHAR char57409
ENCODING 57409
SWIDTH 960 0
DWIDTH 10 0
BBX 10 10 0 -2
BITMAP
1200
1200
3F00
3F00
3F00
1E00
0C00
0C00
0000
0000
ENDCHAR
STARTCHAR char57410
ENCODING 57410
SWIDTH 960 0
DWIDTH 10 0
BBX 10 10 0 -2
BITMAP
0000
1C00
3F00
FC00
FC00
3F00
1C00
0000
0000
0000
ENDCHAR
STARTCHAR char57411
ENCODING 57411
SWIDTH 960 0
DWIDTH 10 0
BBX 10 10 0 -2
BITMAP
3800
4800
8F00
8800
8800
8F00
4800
3800
0000
0000
ENDCHAR
STARTCHAR char57412
ENCODING 57412
SWIDTH 960 0
DWIDTH 10 0
BBX 10 10 0 -2
BITMAP
0000
0000
0100
0D00
0D00
0100
0000
0000
0000
0000
ENDCHAR
STARTCHAR char57413
ENCODING 57413
SWIDTH 960 0
DWIDTH 10 0
BBX 10 10 0 -2
BITMAP
0000
0100
0500
3500
3500
0500
0100
0000
0000
0000
ENDCHAR
STARTCHAR char57414
ENCODING 57414
SWIDTH 960 0
DWIDTH 10 0
BBX 10 10 0 -2
BITMAP
0100
0500
1500
D500
D500
1500
0500
0100
0000
0000
ENDCHAR
STARTCHAR char57415
ENCODING 57415
SWIDTH 960 0
DWIDTH 10 0
BBX 10 10 0 -2
BITMAP
0000
0000
0300
0300
1B00
1B00
1B00
1B00
0000
0000
ENDCHAR
STARTCHAR char57416
ENCODING 57416
SWIDTH 960 0
DWIDTH 10 0
BBX 10 10 0 -2
BITMAP
0300
0300
1B00
1B00
DB00
DB00
DB00
DB00
0000
0000
ENDCHAR
STARTCHAR char57417
ENCODING 57417
SWIDTH 960 0
DWIDTH 10 0
BBX 10 10 0 -2
BITMAP
0000
0000
0000
0000
0F00
0000
0600
0600
0000
0000
ENDCHAR
STARTCHAR char57418
ENCODING 57418
SWIDTH 960 0
DWIDTH 10 0
BBX 10 10 0 -2
BITMAP
0000
0000
3F00
0000
1E00
0000
0C00
0C00
0000
0000
ENDCHAR
STARTCHAR char57419
ENCODING 57419
SWIDTH 960 0
DWIDTH 10 0
BBX 10 10 0 -2
BITMAP
FF00
0000
7E00
0000
3C00
0000
1800
1800
0000
0000
ENDCHAR
STARTCHAR char57420
ENCODING 57420
SWIDTH 960 0
DWIDTH 10 0
BBX 10 10 0 -2
BITMAP
0C00
0C00
2D00
2D00
2100
1E00
0C00
3F00
0000
0000
ENDCHAR
STARTCHAR char57421
ENCODING 57421
SWIDTH 960 0
DWIDTH 10 0
BBX 10 10 0 -2
BITMAP
0000
1E00
2100
4080
4080
4080
7380
7380
3300
0000
ENDCHAR
STARTCHAR char57422
ENCODING 57422
SWIDTH 960 0
DWIDTH 10 0
BBX 10 10 0 -2
BITMAP
0000
0100
0300
1F00
1F00
1F00
1F00
0300
0100
0000
ENDCHAR
STARTCHAR char57423
ENCODING 57423
SWIDTH 960 0
DWIDTH 10 0
BBX 10 10 0 -2
BITMAP
0000
0200
0600
3E80
3D00
3A00
3400
0A00
1200
0000
ENDCHAR
STARTCHAR char57424
ENCODING 57424
SWIDTH 960 0
DWIDTH 10 0
BBX 10 10 0 -2
BITMAP
0000
0400
0C00
7D00
7D00
7D00
7D00
0C00
0400
0000
ENDCHAR
STARTCHAR char57425
ENCODING 57425
SWIDTH 960 0
DWIDTH 10 0
BBX 10 10 0 -2
BITMAP
0000
0000
0400
0C00
7C00
7C00
7C00
0C00
0400
0000
ENDCHAR
STARTCHAR char57426
ENCODING 57426
SWIDTH 960 0
DWIDTH 10 0
BBX 10 10 0 -2
BITMAP
0000
0000
0400
0C00
7D00
7A00
7400
0800
1400
0000
ENDCHAR
STARTCHAR char57427
ENCODING 57427
SWIDTH 960 0
DWIDTH 10 0
BBX 10 10 0 -2
BITMAP
0000
0000
0400
0C00
7D00
7D00
7D00
0C00
0400
0000
ENDCHAR
STARTCHAR char57428
ENCODING 57428
SWIDTH 960 0
DWIDTH 10 0
BBX 10 10 0 -2
BITMAP
0000
2100
2300
2700
2F00
2F00
2700
2300
2100
0000
ENDCHAR
STARTCHAR char57429
ENCODING 57429
SWIDTH 960 0
DWIDTH 10 0
BBX 10 10 0 -2
BITMAP
0000
0880
1980
3B80
7F80
7F80
3B80
1980
0880
0000
ENDCHAR
STARTCHAR char57430
ENCODING 57430
SWIDTH 960 0
DWIDTH 10 0
BBX 10 10 0 -2
BITMAP
0000
1E00
3F00
7F80
7F80
7F80
7F80
3F00
1E00
0000
ENDCHAR
STARTCHAR char57431
ENCODING 57431
SWIDTH 960 0
DWIDTH 10 0
BBX 10 10 0 -2
BITMAP
0000
7F80
7F80
7F80
7F80
7F80
7F80
7F80
7F80
0000
ENDCHAR
STARTCHAR char57432
ENCODING 57432
SWIDTH 960 0
DWIDTH 10 0
BBX 10 10 0 -2
BITMAP
0000
1000
1800
1C00
1E00
1E00
1C00
1800
1000
0000
ENDCHAR
STARTCHAR char57433
ENCODING 57433
SWIDTH 960 0
DWIDTH 10 0
BBX 10 10 0 -2
BITMAP
0000
3600
3600
3600
3600
3600
3600
3600
3600
0000
ENDCHAR
STARTCHAR char57434
ENCODING 57434
SWIDTH 960 0
DWIDTH 10 0
BBX 10 10 0 -2
BITMAP
0000
2100
3100
3900
3D00
3D00
3900
3100
2100
0000
ENDCHAR
STARTCHAR char57435
ENCODING 57435
SWIDTH 960 0
DWIDTH 10 0
BBX 10 10 0 -2
BITMAP
0000
4400
6600
7700
7F80
7F80
7700
6600
4400
0000
ENDCHAR
STARTCHAR char57436
ENCODING 57436
SWIDTH 960 0
DWIDTH 10 0
BBX 10 10 0 -2
BITMAP
0000
1F80
1F80
1080
1080
1080
3180
7380
6300
0000
ENDCHAR
STARTCHAR char57437
ENCODING 57437
SWIDTH 960 0
DWIDTH 10 0
BBX 10 10 0 -2
BITMAP
0000
0800
1900
7880
7A80
7A80
7880
1900
0800
0000
ENDCHAR
STARTCHAR char57438
ENCODING 57438
SWIDTH 960 0
DWIDTH 10 0
BBX 10 10 0 -2
BITMAP
0000
4400
7E00
7F00
7F00
3E00
0400
0000
0000
0000
ENDCHAR
STARTCHAR char57439
ENCODING 57439
SWIDTH 960 0
DWIDTH 10 0
BBX 10 10 0 -2
BITMAP
0000
1100
3F00
7F00
7F00
3E00
1000
0000
0000
0000
ENDCHAR
STARTCHAR char57440
ENCODING 57440
SWIDTH 960 0
DWIDTH 10 0
BBX 10 10 0 -2
BITMAP
1800
3C00
7E00
FF00
3C00
3C00
3C00
3C00
0000
0000
ENDCHAR
STARTCHAR char57441
ENCODING 57441
SWIDTH 960 0
DWIDTH 10 0
BBX 10 10 0 -2
BITMAP
3C00
3C00
3C00
3C00
FF00
7E00
3C00
1800
0000
0000
ENDCHAR
STARTCHAR char57442
ENCODING 57442
SWIDTH 960 0
DWIDTH 10 0
BBX 10 10 0 -2
BITMAP
0800
0C00
FE00
FF00
FF00
FE00
0C00
0800
0000
0000
ENDCHAR
STARTCHAR char57443
ENCODING 57443
SWIDTH 960 0
DWIDTH 10 0
BBX 10 10 0 -2
BITMAP
1000
3000
7F00
FF00
FF00
7F00
3000
1000
0000
0000
ENDCHAR
STARTCHAR char57444
ENCODING 57444
SWIDTH 960 0
DWIDTH 10 0
BBX 10 10 0 -2
BITMAP
1800
3C00
7E00
FF00
3C00
3C00
3C00
1E00
0000
0000
ENDCHAR
STARTCHAR char57445
ENCODING 57445
SWIDTH 960 0
DWIDTH 10 0
BBX 10 10 0 -2
BITMAP
1E00
3C00
3C00
3C00
FF00
7E00
3C00
1800
0000
0000
ENDCHAR
STARTCHAR char57446
ENCODING 57446
SWIDTH 960 0
DWIDTH 10 0
BBX 10 10 0 -2
BITMAP
1800
3C00
7E00
FF00
3C00
3C00
3C00
7800
0000
0000
ENDCHAR
STARTCHAR char57447
ENCODING 57447
SWIDTH 960 0
DWIDTH 10 0
BBX 10 10 0 -2
BITMAP
7800
3C00
3C00
3C00
FF00
7E00
3C00
1800
0000
0000
ENDCHAR
STARTCHAR char57448
ENCODING 57448
SWIDTH 960 0
DWIDTH 10 0
BBX 10 10 0 -2
BITMAP
0800
0C00
7E00
FF00
FF00
FE00
8C00
0800
0000
0000
ENDCHAR
STARTCHAR char57449
ENCODING 57449
SWIDTH 960 0
DWIDTH 10 0
BBX 10 10 0 -2
BITMAP
1000
3000
7E00
FF00
FF00
7F00
3100
1000
0000
0000
ENDCHAR
STARTCHAR char57450
ENCODING 57450
SWIDTH 960 0
DWIDTH 10 0
BBX 10 10 0 -2
BITMAP
0800
8C00
FE00
FF00
FF00
7E00
0C00
0800
0000
0000
ENDCHAR
STARTCHAR char57451
ENCODING 57451
SWIDTH 960 0
DWIDTH 10 0
BBX 10 10 0 -2
BITMAP
1000
3100
7F00
FF00
FF00
7E00
3000
1000
0000
0000
ENDCHAR
STARTCHAR char57452
ENCODING 57452
SWIDTH 960 0
DWIDTH 10 0
BBX 10 10 0 -2
BITMAP
0000
0C00
1E00
3F00
1E00
1E00
1E00
1E00
0000
0000
ENDCHAR
STARTCHAR char57453
ENCODING 57453
SWIDTH 960 0
DWIDTH 10 0
BBX 10 10 0 -2
BITMAP
0000
1E00
1E00
1E00
1E00
3F00
1E00
0C00
0000
0000
ENDCHAR
STARTCHAR char57454
ENCODING 57454
SWIDTH 960 0
DWIDTH 10 0
BBX 10 10 0 -2
BITMAP
0000
0400
7E00
7F00
7F00
7E00
0400
0000
0000
0000
ENDCHAR
STARTCHAR char57455
ENCODING 57455
SWIDTH 960 0
DWIDTH 10 0
BBX 10 10 0 -2
BITMAP
0000
1000
3F00
7F00
7F00
3F00
1000
0000
0000
0000
ENDCHAR
STARTCHAR char57456
ENCODING 57456
SWIDTH 960 0
DWIDTH 10 0
BBX 10 10 0 -2
BITMAP
FF00
7E00
BD00
DB00
E700
FF00
FF00
FF00
0000
0000
ENDCHAR
STARTCHAR char57457
ENCODING 57457
SWIDTH 960 0
DWIDTH 10 0
BBX 10 10 0 -2
BITMAP
FF00
8100
C300
A500
9900
8100
8100
FF00
0000
0000
ENDCHAR
STARTCHAR char57458
ENCODING 57458
SWIDTH 960 0
DWIDTH 10 0
BBX 10 10 0 -2
BITMAP
0000
FF00
7E00
BD00
DB00
E700
FF00
FF00
0000
0000
ENDCHAR
STARTCHAR char57459
ENCODING 57459
SWIDTH 960 0
DWIDTH 10 0
BBX 10 10 0 -2
BITMAP
0000
FF00
8100
C300
A500
9900
8100
FF00
0000
0000
ENDCHAR
STARTCHAR char57460
ENCODING 57460
SWIDTH 960 0
DWIDTH 10 0
BBX 10 10 0 -2
BITMAP
C000
EC00
DE00
5E00
EC00
DE00
3F00
3F00
0000
0000
ENDCHAR
STARTCHAR char57461
ENCODING 57461
SWIDTH 960 0
DWIDTH 10 0
BBX 10 10 0 -2
BITMAP
0000
0C00
1E00
1E00
0C00
1E00
3F00
3F00
0000
0000
ENDCHAR
STARTCHAR char57462
ENCODING 57462
SWIDTH 960 0
DWIDTH 10 0
BBX 10 10 0 -2
BITMAP
FF00
BD00
DB00
E700
E700
DB00
BD00
FF00
0000
0000
ENDCHAR
STARTCHAR char57463
ENCODING 57463
SWIDTH 960 0
DWIDTH 10 0
BBX 10 10 0 -2
BITMAP
1E00
3300
3300
3300
3300
3F00
3300
1E00
0000
0000
ENDCHAR
STARTCHAR char57464
ENCODING 57464
SWIDTH 960 0
DWIDTH 10 0
BBX 10 10 0 -2
BITMAP
1E00
3300
3F00
3300
3300
3300
3300
1E00
0000
0000
ENDCHAR
STARTCHAR char57465
ENCODING 57465
SWIDTH 960 0
DWIDTH 10 0
BBX 10 10 0 -2
BITMAP
3C00
7E00
FF00
C300
C300
FF00
7E00
3C00
0000
0000
ENDCHAR
STARTCHAR char57466
ENCODING 57466
SWIDTH 960 0
DWIDTH 10 0
BBX 10 10 0 -2
BITMAP
0000
0C00
1E00
3F00
1E00
1E00
1E00
0F00
0000
0000
ENDCHAR
STARTCHAR char57467
ENCODING 57467
SWIDTH 960 0
DWIDTH 10 0
BBX 10 10 0 -2
BITMAP
0000
0F00
1E00
1E00
1E00
3F00
1E00
0C00
0000
0000
ENDCHAR
STARTCHAR char57468
ENCODING 57468
SWIDTH 960 0
DWIDTH 10 0
BBX 10 10 0 -2
BITMAP
0000
0C00
1E00
3F00
1E00
1E00
1E00
3C00
0000
0000
ENDCHAR
STARTCHAR char57469
ENCODING 57469
SWIDTH 960 0
DWIDTH 10 0
BBX 10 10 0 -2
BITMAP
0000
3C00
1E00
1E00
1E00
3F00
1E00
0C00
0000
0000
ENDCHAR
STARTCHAR char57470
ENCODING 57470
SWIDTH 960 0
DWIDTH 10 0
BBX 10 10 0 -2
BITMAP
0000
0400
3E00
7F00
7F00
7E00
4400
0000
0000
0000
ENDCHAR
STARTCHAR char57471
ENCODING 57471
SWIDTH 960 0
DWIDTH 10 0
BBX 10 10 0 -2
BITMAP
0000
1000
3E00
7F00
7F00
3F00
1100
0000
0000
0000
ENDCHAR
STARTCHAR char57472
ENCODING 57472
SWIDTH 960 0
DWIDTH 10 0
BBX 10 10 0 -2
BITMAP
0000
0800
1400
3600
7100
3E00
1C00
0800
0000
0000
ENDCHAR
STARTCHAR char57473
ENCODING 57473
SWIDTH 960 0
DWIDTH 10 0
BBX 10 10 0 -2
BITMAP
0000
7F00
7700
7700
7100
7F00
7F00
7F00
0000
0000
ENDCHAR
STARTCHAR char57474
ENCODING 57474
SWIDTH 960 0
DWIDTH 10 0
BBX 10 10 0 -2
BITMAP
0000
6B00
6300
1C00
5D00
1C00
6300
6B00
0000
0000
ENDCHAR
STARTCHAR char57475
ENCODING 57475
SWIDTH 960 0
DWIDTH 10 0
BBX 10 10 0 -2
BITMAP
0000
2000
2F00
3C00
3600
1E00
7A00
0200
0000
0000
ENDCHAR
STARTCHAR char57476
ENCODING 57476
SWIDTH 960 0
DWIDTH 10 0
BBX 10 10 0 -2
BITMAP
0000
0000
FE00
8300
8300
8300
FE00
0000
0000
0000
ENDCHAR
STARTCHAR char57477
ENCODING 57477
SWIDTH 960 0
DWIDTH 10 0
BBX 10 10 0 -2
BITMAP
0000
0000
FE00
8300
B300
8300
FE00
0000
0000
0000
ENDCHAR
STARTCHAR char57478
ENCODING 57478
SWIDTH 960 0
DWIDTH 10 0
BBX 10 10 0 -2
BITMAP
0000
0000
FE00
8300
BB00
8300
FE00
0000
0000
0000
ENDCHAR
STARTCHAR char57479
ENCODING 57479
SWIDTH 960 0
DWIDTH 10 0
BBX 10 10 0 -2
BITMAP
0000
0C00
3F00
2100
2100
2100
2100
3F00
0000
0000
ENDCHAR
STARTCHAR char57480
ENCODING 57480
SWIDTH 960 0
DWIDTH 10 0
BBX 10 10 0 -2
BITMAP
0000
0C00
3F00
2100
2900
2D00
2100
3F00
0000
0000
ENDCHAR
STARTCHAR char57481
ENCODING 57481
SWIDTH 960 0
DWIDTH 10 0
BBX 10 10 0 -2
BITMAP
0000
0C00
3F00
2100
2D00
2D00
2100
3F00
0000
0000
ENDCHAR
STARTCHAR char57482
ENCODING 57482
SWIDTH 960 0
DWIDTH 10 0
BBX 10 10 0 -2
BITMAP
0000
0E00
1F00
1100
1100
1100
1100
1F00
0000
0000
ENDCHAR
STARTCHAR char57483
ENCODING 57483
SWIDTH 960 0
DWIDTH 10 0
BBX 10 10 0 -2
BITMAP
0000
0E00
1F00
1100
1100
1500
1100
1F00
0000
0000
ENDCHAR
STARTCHAR char57484
ENCODING 57484
SWIDTH 960 0
DWIDTH 10 0
BBX 10 10 0 -2
BITMAP
0000
0E00
1F00
1100
1500
1500
1100
1F00
0000
0000
ENDCHAR
STARTCHAR char57485
ENCODING 57485
SWIDTH 960 0
DWIDTH 10 0
BBX 10 10 0 -2
BITMAP
0E00
1F00
1100
1100
1100
1100
1100
1F00
0000
0000
ENDCHAR
STARTCHAR char57486
ENCODING 57486
SWIDTH 960 0
DWIDTH 10 0
BBX 10 10 0 -2
BITMAP
0E00
1F00
1100
1100
1500
1500
1100
1F00
0000
0000
ENDCHAR
STARTCHAR char57487
ENCODING 57487
SWIDTH 960 0
DWIDTH 10 0
BBX 10 10 0 -2
BITMAP
0E00
1F00
1100
1500
1500
1500
1100
1F00
0000
0000
ENDCHAR
STARTCHAR char57488
ENCODING 57488
SWIDTH 960 0
DWIDTH 10 0
BBX 10 10 0 -2
BITMAP
0000
7F00
4100
C100
C100
4100
7F00
0000
0000
0000
ENDCHAR
STARTCHAR char57489
ENCODING 57489
SWIDTH 960 0
DWIDTH 10 0
BBX 10 10 0 -2
BITMAP
0000
7F00
4100
C500
CD00
4100
7F00
0000
0000
0000
ENDCHAR
STARTCHAR char57490
ENCODING 57490
SWIDTH 960 0
DWIDTH 10 0
BBX 10 10 0 -2
BITMAP
0000
7F00
4100
CD00
DD00
4100
7F00
0000
0000
0000
ENDCHAR
STARTCHAR char57491
ENCODING 57491
SWIDTH 960 0
DWIDTH 10 0
BBX 10 10 0 -2
BITMAP
0000
7F00
4100
DD00
DD00
4100
7F00
0000
0000
0000
ENDCHAR
STARTCHAR char57492
ENCODING 57492
SWIDTH 960 0
DWIDTH 10 0
BBX 10 10 0 -2
BITMAP
0800
4C00
8F00
AF00
AF00
8F00
4C00
0800
0000
0000
ENDCHAR
STARTCHAR char57493
ENCODING 57493
SWIDTH 960 0
DWIDTH 10 0
BBX 10 10 0 -2
BITMAP
2000
3000
BE00
BE00
BE00
BE00
3000
2000
0000
0000
ENDCHAR
STARTCHAR char57494
ENCODING 57494
SWIDTH 960 0
DWIDTH 10 0
BBX 10 10 0 -2
BITMAP
0000
2100
2300
2700
2F00
2700
2300
2100
0000
0000
ENDCHAR
STARTCHAR char57495
ENCODING 57495
SWIDTH 960 0
DWIDTH 10 0
BBX 10 10 0 -2
BITMAP
0000
1100
3300
7700
FF00
7700
3300
1100
0000
0000
ENDCHAR
STARTCHAR char57496
ENCODING 57496
SWIDTH 960 0
DWIDTH 10 0
BBX 10 10 0 -2
BITMAP
0000
1C00
3E00
7F00
7F00
7F00
3E00
1C00
0000
0000
ENDCHAR
STARTCHAR char57497
ENCODING 57497
SWIDTH 960 0
DWIDTH 10 0
BBX 10 10 0 -2
BITMAP
0000
7F00
7F00
7F00
7F00
7F00
7F00
7F00
0000
0000
ENDCHAR
STARTCHAR char57498
ENCODING 57498
SWIDTH 960 0
DWIDTH 10 0
BBX 10 10 0 -2
BITMAP
0000
0800
0C00
0E00
0F00
0E00
0C00
0800
0000
0000
ENDCHAR
STARTCHAR char57499
ENCODING 57499
SWIDTH 960 0
DWIDTH 10 0
BBX 10 10 0 -2
BITMAP
0000
1B00
1B00
1B00
1B00
1B00
1B00
1B00
0000
0000
ENDCHAR
STARTCHAR char57500
ENCODING 57500
SWIDTH 960 0
DWIDTH 10 0
BBX 10 10 0 -2
BITMAP
0000
2100
3100
3900
3D00
3900
3100
2100
0000
0000
ENDCHAR
STARTCHAR char57501
ENCODING 57501
SWIDTH 960 0
DWIDTH 10 0
BBX 10 10 0 -2
BITMAP
0000
8800
CC00
EE00
FF00
EE00
CC00
8800
0000
0000
ENDCHAR
STARTCHAR char57502
ENCODING 57502
SWIDTH 960 0
DWIDTH 10 0
BBX 10 10 0 -2
BITMAP
0200
0400
0C00
1800
3F00
0600
0C00
0800
1000
0000
ENDCHAR
STARTCHAR char57503
ENCODING 57503
SWIDTH 960 0
DWIDTH 10 0
BBX 10 10 0 -2
BITMAP
FF00
8100
8100
8100
8100
FF00
1800
7E00
0000
0000
ENDCHAR
STARTCHAR char57504
ENCODING 57504
SWIDTH 960 0
DWIDTH 10 0
BBX 10 10 0 -2
BITMAP
0000
1E00
3700
3E00
3C00
3F00
1E00
0000
0000
0000
ENDCHAR
STARTCHAR char57505
ENCODING 57505
SWIDTH 960 0
DWIDTH 10 0
BBX 10 10 0 -2
BITMAP
1800
1800
3C00
3C00
7E00
6600
E700
C300
0000
0000
ENDCHAR
STARTCHAR char57506
ENCODING 57506
SWIDTH 960 0
DWIDTH 10 0
BBX 10 10 0 -2
BITMAP
0000
1E00
3700
3700
3100
3F00
1E00
0000
0000
0000
ENDCHAR
STARTCHAR char57507
ENCODING 57507
SWIDTH 960 0
DWIDTH 10 0
BBX 10 10 0 -2
BITMAP
0000
1C00
3600
7700
7100
7F00
3E00
1C00
0000
0000
ENDCHAR
STARTCHAR char57508
ENCODING 57508
SWIDTH 960 0
DWIDTH 10 0
BBX 10 10 0 -2
BITMAP
0000
0C00
0F00
0C00
0F00
0C00
1E00
0C00
0000
0000
ENDCHAR
STARTCHAR char57509
ENCODING 57509
SWIDTH 960 0
DWIDTH 10 0
BBX 10 10 0 -2
BITMAP
0000
0900
1C00
1D00
1400
2200
2200
1C00
0000
0000
ENDCHAR
STARTCHAR char57510
ENCODING 57510
SWIDTH 960 0
DWIDTH 10 0
BBX 10 10 0 -2
BITMAP
0000
1E00
2100
2100
2100
3F00
3F00
3F00
0000
0000
ENDCHAR
STARTCHAR char57511
ENCODING 57511
SWIDTH 960 0
DWIDTH 10 0
BBX 10 10 0 -2
BITMAP
3F00
3300
3300
3300
3300
3F00
3300
3F00
0000
0000
ENDCHAR
STARTCHAR char57512
ENCODING 57512
SWIDTH 960 0
DWIDTH 10 0
BBX 10 10 0 -2
BITMAP
3F00
3300
3F00
3300
3300
3300
3300
3F00
0000
0000
ENDCHAR
STARTCHAR char57513
ENCODING 57513
SWIDTH 960 0
DWIDTH 10 0
BBX 10 10 0 -2
BITMAP
0000
3C00
4200
9900
9900
4200
3C00
0000
0000
0000
ENDCHAR
STARTCHAR char57514
ENCODING 57514
SWIDTH 960 0
DWIDTH 10 0
BBX 10 10 0 -2
BITMAP
1C00
3E00
6B00
6B00
7F00
7F00
7F00
5500
0000
0000
ENDCHAR
STARTCHAR char57515
ENCODING 57515
SWIDTH 960 0
DWIDTH 10 0
BBX 10 10 0 -2
BITMAP
3C00
7E00
E700
DB00
DB00
E700
7E00
3C00
0000
0000
ENDCHAR
STARTCHAR char57516
ENCODING 57516
SWIDTH 960 0
DWIDTH 10 0
BBX 10 10 0 -2
BITMAP
0000
3C00
2200
3900
2500
3500
3F00
0000
0000
0000
ENDCHAR
STARTCHAR char57517
ENCODING 57517
SWIDTH 960 0
DWIDTH 10 0
BBX 10 10 0 -2
BITMAP
7E00
8100
8100
8100
8100
7A00
0C00
0800
0000
0000
ENDCHAR
STARTCHAR char57518
ENCODING 57518
SWIDTH 960 0
DWIDTH 10 0
BBX 10 10 0 -2
BITMAP
1800
2400
6600
E700
E700
7E00
2400
1800
0000
0000
ENDCHAR
STARTCHAR char57519
ENCODING 57519
SWIDTH 960 0
DWIDTH 10 0
BBX 10 10 0 -2
BITMAP
0000
3F00
2100
2100
2100
3F00
0C00
3F00
0000
0000
ENDCHAR
STARTCHAR char57520
ENCODING 57520
SWIDTH 960 0
DWIDTH 10 0
BBX 10 10 0 -2
BITMAP
0000
0400
2600
1500
0E00
1500
2600
0400
0000
0000
ENDCHAR
STARTCHAR char57521
ENCODING 57521
SWIDTH 960 0
DWIDTH 10 0
BBX 10 10 0 -2
BITMAP
F800
F800
F800
FB00
FB00
0300
1F00
1F00
0000
0000
ENDCHAR
STARTCHAR char57522
ENCODING 57522
SWIDTH 960 0
DWIDTH 10 0
BBX 10 10 0 -2
BITMAP
1800
3C00
7E00
FF00
4200
5A00
5A00
7E00
0000
0000
ENDCHAR
STARTCHAR char57523
ENCODING 57523
SWIDTH 960 0
DWIDTH 10 0
BBX 10 10 0 -2
BITMAP
0700
0700
0700
0700
0700
0000
0700
0700
0000
0000
ENDCHAR
STARTCHAR char57524
ENCODING 57524
SWIDTH 960 0
DWIDTH 10 0
BBX 10 10 0 -2
BITMAP
0000
FF00
8100
8100
8100
8100
8100
FF00
0000
0000
ENDCHAR
STARTCHAR char57525
ENCODING 57525
SWIDTH 960 0
DWIDTH 10 0
BBX 10 10 0 -2
BITMAP
0000
FF00
8900
8F00
8900
8F00
8900
FF00
0000
0000
ENDCHAR
STARTCHAR char57526
ENCODING 57526
SWIDTH 960 0
DWIDTH 10 0
BBX 10 10 0 -2
BITMAP
0000
FF00
8100
8100
FF00
A500
A500
FF00
0000
0000
ENDCHAR
STARTCHAR char57527
ENCODING 57527
SWIDTH 960 0
DWIDTH 10 0
BBX 10 10 0 -2
BITMAP
0000
FF00
8100
8100
8100
FF00
8100
FF00
0000
0000
ENDCHAR
STARTCHAR char57528
ENCODING 57528
SWIDTH 960 0
DWIDTH 10 0
BBX 10 10 0 -2
BITMAP
0000
FF00
A500
FF00
A500
FF00
A500
FF00
0000
0000
ENDCHAR
STARTCHAR char57529
ENCODING 57529
SWIDTH 960 0
DWIDTH 10 0
BBX 10 10 0 -2
BITMAP
0000
F800
8800
8800
FB00
0100
1100
1F00
0000
0000
ENDCHAR
STARTCHAR char57530
ENCODING 57530
SWIDTH 960 0
DWIDTH 10 0
BBX 10 10 0 -2
BITMAP
0000
FF00
9100
9F00
9500
9700
9500
FF00
0000
0000
ENDCHAR
STARTCHAR char57531
ENCODING 57531
SWIDTH 960 0
DWIDTH 10 0
BBX 10 10 0 -2
BITMAP
0000
FF00
9100
9F00
9500
9D00
9500
FF00
0000
0000
ENDCHAR
STARTCHAR char57532
ENCODING 57532
SWIDTH 960 0
DWIDTH 10 0
BBX 10 10 0 -2
BITMAP
0000
FF00
8900
8F00
F900
8F00
8900
FF00
0000
0000
ENDCHAR
STARTCHAR char57533
ENCODING 57533
SWIDTH 960 0
DWIDTH 10 0
BBX 10 10 0 -2
BITMAP
0000
FF00
8900
8900
FF00
A500
A500
FF00
0000
0000
ENDCHAR
STARTCHAR char57534
ENCODING 57534
SWIDTH 960 0
DWIDTH 10 0
BBX 10 10 0 -2
BITMAP
0000
FF00
8900
8900
F900
8100
8100
FF00
0000
0000
ENDCHAR
STARTCHAR char57535
ENCODING 57535
SWIDTH 960 0
DWIDTH 10 0
BBX 10 10 0 -2
BITMAP
1800
2400
4200
FF00
4200
5A00
5A00
7E00
0000
0000
ENDCHAR
STARTCHAR char57536
ENCODING 57536
SWIDTH 960 0
DWIDTH 10 0
BBX 10 10 0 -2
BITMAP
0000
6300
5D00
2200
2200
2200
5D00
6300
0000
0000
ENDCHAR
STARTCHAR char57537
ENCODING 57537
SWIDTH 960 0
DWIDTH 10 0
BBX 10 10 0 -2
BITMAP
C300
BD00
4200
4200
4200
4200
BD00
C300
0000
0000
ENDCHAR
STARTCHAR char57538
ENCODING 57538
SWIDTH 960 0
DWIDTH 10 0
BBX 10 10 0 -2
BITMAP
0000
4100
3E00
2200
2200
2200
3E00
4100
0000
0000
ENDCHAR
STARTCHAR char57539
ENCODING 57539
SWIDTH 960 0
DWIDTH 10 0
BBX 10 10 0 -2
BITMAP
8100
7E00
4200
4200
4200
4200
7E00
8100
0000
0000
ENDCHAR
STARTCHAR char57540
ENCODING 57540
SWIDTH 960 0
DWIDTH 10 0
BBX 10 10 0 -2
BITMAP
0000
5500
0000
7F00
4100
7F00
0000
5500
0000
0000
ENDCHAR
STARTCHAR char57541
ENCODING 57541
SWIDTH 960 0
DWIDTH 10 0
BBX 10 10 0 -2
BITMAP
5500
0000
7F00
4100
4100
7F00
0000
5500
0000
0000
ENDCHAR
STARTCHAR char57542
ENCODING 57542
SWIDTH 960 0
DWIDTH 10 0
BBX 10 10 0 -2
BITMAP
0000
1C00
3E00
6B00
6B00
7F00
7F00
5500
0000
0000
ENDCHAR
STARTCHAR char57543
ENCODING 57543
SWIDTH 960 0
DWIDTH 10 0
BBX 10 10 0 -2
BITMAP
0000
1C00
3E00
6B00
7F00
7F00
7F00
5500
0000
0000
ENDCHAR
STARTCHAR char57544
ENCODING 57544
SWIDTH 960 0
DWIDTH 10 0
BBX 10 10 0 -2
BITMAP
1C00
3E00
6B00
7F00
7F00
7F00
7F00
5500
0000
0000
ENDCHAR
STARTCHAR char57545
ENCODING 57545
SWIDTH 960 0
DWIDTH 10 0
BBX 10 10 0 -2
BITMAP
0000
2600
8E00
1C00
6800
9000
9000
6000
0000
0000
ENDCHAR
STARTCHAR char57546
ENCODING 57546
SWIDTH 960 0
DWIDTH 10 0
BBX 10 10 0 -2
BITMAP
1300
0500
4A00
1400
6800
9000
9000
6000
0000
0000
ENDCHAR
STARTCHAR char57547
ENCODING 57547
SWIDTH 960 0
DWIDTH 10 0
BBX 10 10 0 -2
BITMAP
0000
2600
8A00
1400
6800
9000
9000
6000
0000
0000
ENDCHAR
STARTCHAR char57548
ENCODING 57548
SWIDTH 960 0
DWIDTH 10 0
BBX 10 10 0 -2
BITMAP
0900
1C00
1500
1400
1500
2200
2200
1C00
0000
0000
ENDCHAR
STARTCHAR char57549
ENCODING 57549
SWIDTH 960 0
DWIDTH 10 0
BBX 10 10 0 -2
BITMAP
0000
0900
1C00
1500
1400
2200
2200
1C00
0000
0000
ENDCHAR
STARTCHAR char57550
ENCODING 57550
SWIDTH 960 0
DWIDTH 10 0
BBX 10 10 0 -2
BITMAP
0000
1C00
1700
1400
1700
1400
2200
1C00
0000
0000
ENDCHAR
STARTCHAR char57551
ENCODING 57551
SWIDTH 960 0
DWIDTH 10 0
BBX 10 10 0 -2
BITMAP
1C00
1700
1400
1700
1400
2200
2200
1C00
0000
0000
ENDCHAR
STARTCHAR char57552
ENCODING 57552
SWIDTH 960 0
DWIDTH 10 0
BBX 10 10 0 -2
BITMAP
1800
2400
4200
E700
2400
2400
2400
3C00
0000
0000
ENDCHAR
STARTCHAR char57553
ENCODING 57553
SWIDTH 960 0
DWIDTH 10 0
BBX 10 10 0 -2
BITMAP
3C00
2400
2400
2400
E700
4200
2400
1800
0000
0000
ENDCHAR
STARTCHAR char57554
ENCODING 57554
SWIDTH 960 0
DWIDTH 10 0
BBX 10 10 0 -2
BITMAP
0800
0C00
FA00
8100
8100
FA00
0C00
0800
0000
0000
ENDCHAR
STARTCHAR char57555
ENCODING 57555
SWIDTH 960 0
DWIDTH 10 0
BBX 10 10 0 -2
BITMAP
1000
3000
5F00
8100
8100
5F00
3000
1000
0000
0000
ENDCHAR
STARTCHAR char57556
ENCODING 57556
SWIDTH 960 0
DWIDTH 10 0
BBX 10 10 0 -2
BITMAP
0000
0800
1400
2200
7700
1400
1400
1C00
0000
0000
ENDCHAR
STARTCHAR char57557
ENCODING 57557
SWIDTH 960 0
DWIDTH 10 0
BBX 10 10 0 -2
BITMAP
0000
1C00
1400
1400
7700
2200
1400
0800
0000
0000
ENDCHAR
STARTCHAR char57558
ENCODING 57558
SWIDTH 960 0
DWIDTH 10 0
BBX 10 10 0 -2
BITMAP
0000
0800
0C00
7A00
4100
7A00
0C00
0800
0000
0000
ENDCHAR
STARTCHAR char57559
ENCODING 57559
SWIDTH 960 0
DWIDTH 10 0
BBX 10 10 0 -2
BITMAP
0000
1000
3000
5E00
8200
5E00
3000
1000
0000
0000
ENDCHAR
STARTCHAR char57560
ENCODING 57560
SWIDTH 960 0
DWIDTH 10 0
BBX 10 10 0 -2
BITMAP
0000
1800
2800
CF00
8800
CF00
2800
1800
0000
0000
ENDCHAR
STARTCHAR char57561
ENCODING 57561
SWIDTH 960 0
DWIDTH 10 0
BBX 10 10 0 -2
BITMAP
1800
2800
4F00
8800
8800
4F00
2800
1800
0000
0000
ENDCHAR
STARTCHAR char57562
ENCODING 57562
SWIDTH 960 0
DWIDTH 10 0
BBX 10 10 0 -2
BITMAP
1200
1200
1200
3F00
2100
1200
0C00
0C00
0000
0000
ENDCHAR
STARTCHAR char57563
ENCODING 57563
SWIDTH 960 0
DWIDTH 10 0
BBX 10 10 0 -2
BITMAP
0000
1200
1200
3F00
2100
1200
0C00
0C00
0000
0000
ENDCHAR
STARTCHAR char57564
ENCODING 57564
SWIDTH 960 0
DWIDTH 10 0
BBX 10 10 0 -2
BITMAP
0000
3C00
4200
9400
8800
8F00
4200
3C00
0000
0000
ENDCHAR
STARTCHAR char57565
ENCODING 57565
SWIDTH 960 0
DWIDTH 10 0
BBX 10 10 0 -2
BITMAP
1800
2400
2400
4200
4200
9900
A500
C300
0000
0000
ENDCHAR
STARTCHAR char57566
ENCODING 57566
SWIDTH 960 0
DWIDTH 10 0
BBX 10 10 0 -2
BITMAP
3C00
4200
9200
8400
8800
8700
4200
3C00
0000
0000
ENDCHAR
STARTCHAR char57567
ENCODING 57567
SWIDTH 960 0
DWIDTH 10 0
BBX 10 10 0 -2
BITMAP
0000
0800
1400
1400
2200
2A00
5500
6300
0000
0000
ENDCHAR
STARTCHAR char57568
ENCODING 57568
SWIDTH 960 0
DWIDTH 10 0
BBX 10 10 0 -2
BITMAP
1000
3200
D100
9500
9500
D100
3200
1000
0000
0000
ENDCHAR
STARTCHAR char57569
ENCODING 57569
SWIDTH 960 0
DWIDTH 10 0
BBX 10 10 0 -2
BITMAP
0000
1000
3200
D100
9500
D100
3200
1000
0000
0000
ENDCHAR
STARTCHAR char57570
ENCODING 57570
SWIDTH 960 0
DWIDTH 10 0
BBX 10 10 0 -2
BITMAP
0400
0C00
7500
4500
4500
7500
0C00
0400
0000
0000
ENDCHAR
STARTCHAR char57571
ENCODING 57571
SWIDTH 960 0
DWIDTH 10 0
BBX 10 10 0 -2
BITMAP
0000
0400
0C00
7500
4500
7500
0C00
0400
0000
0000
ENDCHAR
STARTCHAR char57572
ENCODING 57572
SWIDTH 960 0
DWIDTH 10 0
BBX 10 10 0 -2
BITMAP
2100
2300
2500
2900
2900
2500
2300
2100
0000
0000
ENDCHAR
STARTCHAR char57573
ENCODING 57573
SWIDTH 960 0
DWIDTH 10 0
BBX 10 10 0 -2
BITMAP
1100
3300
5500
9900
9900
5500
3300
1100
0000
0000
ENDCHAR
STARTCHAR char57574
ENCODING 57574
SWIDTH 960 0
DWIDTH 10 0
BBX 10 10 0 -2
BITMAP
3C00
4200
8100
8100
8100
8100
4200
3C00
0000
0000
ENDCHAR
STARTCHAR char57575
ENCODING 57575
SWIDTH 960 0
DWIDTH 10 0
BBX 10 10 0 -2
BITMAP
FF00
8100
8100
8100
8100
8100
8100
FF00
0000
0000
ENDCHAR
STARTCHAR char57576
ENCODING 57576
SWIDTH 960 0
DWIDTH 10 0
BBX 10 10 0 -2
BITMAP
0800
0C00
0A00
0900
0900
0A00
0C00
0800
0000
0000
ENDCHAR
STARTCHAR char57577
ENCODING 57577
SWIDTH 960 0
DWIDTH 10 0
BBX 10 10 0 -2
BITMAP
0900
0900
0900
0900
0900
0900
0900
0900
0000
0000
ENDCHAR
STARTCHAR char57578
ENCODING 57578
SWIDTH 960 0
DWIDTH 10 0
BBX 10 10 0 -2
BITMAP
2100
3100
2900
2500
2500
2900
3100
2100
0000
0000
ENDCHAR
STARTCHAR char57579
ENCODING 57579
SWIDTH 960 0
DWIDTH 10 0
BBX 10 10 0 -2
BITMAP
8800
CC00
AA00
9900
9900
AA00
CC00
8800
0000
0000
ENDCHAR
STARTCHAR char57580
ENCODING 57580
SWIDTH 960 0
DWIDTH 10 0
BBX 10 10 0 -2
BITMAP
0000
1F00
1100
1100
1100
3300
5500
6600
0000
0000
ENDCHAR
STARTCHAR char57581
ENCODING 57581
SWIDTH 960 0
DWIDTH 10 0
BBX 10 10 0 -2
BITMAP
1F00
1100
1100
1100
1100
3300
5500
6600
0000
0000
ENDCHAR
STARTCHAR char57582
ENCODING 57582
SWIDTH 960 0
DWIDTH 10 0
BBX 10 10 0 -2
BITMAP
0000
0000
0000
0000
0100
0100
0500
0500
0000
0000
ENDCHAR
STARTCHAR char57583
ENCODING 57583
SWIDTH 960 0
DWIDTH 10 0
BBX 10 10 0 -2
BITMAP
0000
0000
0100
0100
0500
0500
1500
1500
0000
0000
ENDCHAR
STARTCHAR char57584
ENCODING 57584
SWIDTH 960 0
DWIDTH 10 0
BBX 10 10 0 -2
BITMAP
0100
0100
0500
0500
1500
1500
5500
5500
0000
0000
ENDCHAR
STARTCHAR char57585
ENCODING 57585
SWIDTH 960 0
DWIDTH 10 0
BBX 10 10 0 -2
BITMAP
0000
0000
0000
0000
0000
0100
0100
0500
0000
0000
ENDCHAR
STARTCHAR char57586
ENCODING 57586
SWIDTH 960 0
DWIDTH 10 0
BBX 10 10 0 -2
BITMAP
0000
0000
0000
0100
0100
0500
0500
1500
0000
0000
ENDCHAR
STARTCHAR char57587
ENCODING 57587
SWIDTH 960 0
DWIDTH 10 0
BBX 10 10 0 -2
BITMAP
0000
0100
0100
0500
0500
1500
1500
5500
0000
0000
ENDCHAR
STARTCHAR char57588
ENCODING 57588
SWIDTH 960 0
DWIDTH 10 0
BBX 10 10 0 -2
BITMAP
0000
2100
2300
2500
2900
2500
2300
2100
0000
0000
ENDCHAR
STARTCHAR char57589
ENCODING 57589
SWIDTH 960 0
DWIDTH 10 0
BBX 10 10 0 -2
BITMAP
0000
1100
3300
5500
9900
5500
3300
1100
0000
0000
ENDCHAR
STARTCHAR char57590
ENCODING 57590
SWIDTH 960 0
DWIDTH 10 0
BBX 10 10 0 -2
BITMAP
0000
1C00
2200
4100
4100
4100
2200
1C00
0000
0000
ENDCHAR
STARTCHAR char57591
ENCODING 57591
SWIDTH 960 0
DWIDTH 10 0
BBX 10 10 0 -2
BITMAP
0000
7F00
4100
4100
4100
4100
4100
7F00
0000
0000
ENDCHAR
STARTCHAR char57592
ENCODING 57592
SWIDTH 960 0
DWIDTH 10 0
BBX 10 10 0 -2
BITMAP
0000
0800
0C00
0A00
0900
0A00
0C00
0800
0000
0000
ENDCHAR
STARTCHAR char57593
ENCODING 57593
SWIDTH 960 0
DWIDTH 10 0
BBX 10 10 0 -2
BITMAP
0000
0900
0900
0900
0900
0900
0900
0900
0000
0000
ENDCHAR
STARTCHAR char57594
ENCODING 57594
SWIDTH 960 0
DWIDTH 10 0
BBX 10 10 0 -2
BITMAP
0000
2100
3100
2900
2500
2900
3100
2100
0000
0000
ENDCHAR
STARTCHAR char57595
ENCODING 57595
SWIDTH 960 0
DWIDTH 10 0
BBX 10 10 0 -2
BITMAP
0000
8800
CC00
AA00
9900
AA00
CC00
8800
0000
0000
ENDCHAR
STARTCHAR char57596
ENCODING 57596
SWIDTH 960 0
DWIDTH 10 0
BBX 10 10 0 -2
BITMAP
0000
0000
1E00
2100
4080
4080
7380
5280
3300
0000
ENDCHAR
STARTCHAR char57597
ENCODING 57597
SWIDTH 960 0
DWIDTH 10 0
BBX 10 10 0 -2
BITMAP
0000
0000
1E00
2100
4080
4080
7380
7380
3300
0000
ENDCHAR
STARTCHAR char57598
ENCODING 57598
SWIDTH 960 0
DWIDTH 10 0
BBX 10 10 0 -2
BITMAP
0000
0000
1F00
1F00
1100
1100
3300
7700
6600
0000
ENDCHAR
STARTCHAR char57599
ENCODING 57599
SWIDTH 960 0
DWIDTH 10 0
BBX 10 10 0 -2
BITMAP
0000
0700
0700
0000
0700
0700
0700
0700
0700
0000
ENDCHAR
STARTCHAR char57600
ENCODING 57600
SWIDTH 960 0
DWIDTH 10 0
BBX 10 10 0 -2
BITMAP
0000
7900
3F00
2300
6B00
6200
7E00
4F00
0000
0000
ENDCHAR
STARTCHAR char57601
ENCODING 57601
SWIDTH 960 0
DWIDTH 10 0
BBX 10 10 0 -2
BITMAP
0000
3900
1F00
1300
3200
3E00
2700
0000
0000
0000
ENDCHAR
STARTCHAR char57602
ENCODING 57602
SWIDTH 960 0
DWIDTH 10 0
BBX 10 10 0 -2
BITMAP
0000
FF00
C300
A500
9900
8100
FF00
0000
0000
0000
ENDCHAR
STARTCHAR char57603
ENCODING 57603
SWIDTH 960 0
DWIDTH 10 0
BBX 10 10 0 -2
BITMAP
0000
FF00
7E00
BD00
C300
FF00
FF00
0000
0000
0000
ENDCHAR
STARTCHAR char57604
ENCODING 57604
SWIDTH 960 0
DWIDTH 10 0
BBX 10 10 0 -2
BITMAP
1800
3C00
7E00
FF00
FF00
7E00
3C00
1800
0000
0000
ENDCHAR
STARTCHAR char57605
ENCODING 57605
SWIDTH 960 0
DWIDTH 10 0
BBX 10 10 0 -2
BITMAP
0000
0800
1C00
3E00
7F00
3E00
1C00
0800
0000
0000
ENDCHAR
STARTCHAR char57606
ENCODING 57606
SWIDTH 960 0
DWIDTH 10 0
BBX 10 10 0 -2
BITMAP
6600
FF00
FF00
FF00
FF00
7E00
3C00
1800
0000
0000
ENDCHAR
STARTCHAR char57607
ENCODING 57607
SWIDTH 960 0
DWIDTH 10 0
BBX 10 10 0 -2
BITMAP
0000
6600
FF00
FF00
FF00
7E00
3C00
1800
0000
0000
ENDCHAR
STARTCHAR char57608
ENCODING 57608
SWIDTH 960 0
DWIDTH 10 0
BBX 10 10 0 -2
BITMAP
0800
1400
2200
7700
1400
1400
1400
1C00
0000
0000
ENDCHAR
STARTCHAR char57609
ENCODING 57609
SWIDTH 960 0
DWIDTH 10 0
BBX 10 10 0 -2
BITMAP
1C00
1400
1400
1400
7700
2200
1400
0800
0000
0000
ENDCHAR
STARTCHAR char57610
ENCODING 57610
SWIDTH 960 0
DWIDTH 10 0
BBX 10 10 0 -2
BITMAP
0000
0800
0C00
FA00
8100
FA00
0C00
0800
0000
0000
ENDCHAR
STARTCHAR char57611
ENCODING 57611
SWIDTH 960 0
DWIDTH 10 0
BBX 10 10 0 -2
BITMAP
0000
1000
3000
5F00
8100
5F00
3000
1000
0000
0000
ENDCHAR
STARTCHAR char57612
ENCODING 57612
SWIDTH 960 0
DWIDTH 10 0
BBX 10 10 0 -2
BITMAP
0800
0800
2A00
4900
4900
4100
2200
1C00
0000
0000
ENDCHAR
STARTCHAR char57613
ENCODING 57613
SWIDTH 960 0
DWIDTH 10 0
BBX 10 10 0 -2
BITMAP
0000
0800
2A00
4900
4900
4100
2200
1C00
0000
0000
ENDCHAR
STARTCHAR char57614
ENCODING 57614
SWIDTH 960 0
DWIDTH 10 0
BBX 10 10 0 -2
BITMAP
0000
0800
1400
2200
7F00
2200
2A00
3E00
0000
0000
ENDCHAR
STARTCHAR char57615
ENCODING 57615
SWIDTH 960 0
DWIDTH 10 0
BBX 10 10 0 -2
BITMAP
0000
1200
1700
1200
1200
1200
3A00
1200
0000
0000
ENDCHAR
STARTCHAR char57616
ENCODING 57616
SWIDTH 960 0
DWIDTH 10 0
BBX 10 10 0 -2
BITMAP
0000
0400
1F00
1100
1100
1100
1100
1F00
0000
0000
ENDCHAR
STARTCHAR char57617
ENCODING 57617
SWIDTH 960 0
DWIDTH 10 0
BBX 10 10 0 -2
BITMAP
0000
0400
1F00
1100
1100
1500
1100
1F00
0000
0000
ENDCHAR
STARTCHAR char57618
ENCODING 57618
SWIDTH 960 0
DWIDTH 10 0
BBX 10 10 0 -2
BITMAP
0000
0400
1F00
1100
1500
1500
1100
1F00
0000
0000
ENDCHAR
STARTCHAR char57619
ENCODING 57619
SWIDTH 960 0
DWIDTH 10 0
BBX 10 10 0 -2
BITMAP
0000
0000
FE00
8200
8300
8200
FE00
0000
0000
0000
ENDCHAR
STARTCHAR char57620
ENCODING 57620
SWIDTH 960 0
DWIDTH 10 0
BBX 10 10 0 -2
BITMAP
0000
0000
FE00
8200
A300
8200
FE00
0000
0000
0000
ENDCHAR
STARTCHAR char57621
ENCODING 57621
SWIDTH 960 0
DWIDTH 10 0
BBX 10 10 0 -2
BITMAP
0000
0000
FE00
8200
B300
8200
FE00
0000
0000
0000
ENDCHAR
STARTCHAR char57622
ENCODING 57622
SWIDTH 960 0
DWIDTH 10 0
BBX 10 10 0 -2
BITMAP
0000
0000
FE00
8200
BB00
8200
FE00
0000
0000
0000
ENDCHAR
STARTCHAR char57623
ENCODING 57623
SWIDTH 960 0
DWIDTH 10 0
BBX 10 10 0 -2
BITMAP
0000
0000
7F00
4100
C100
4100
7F00
0000
0000
0000
ENDCHAR
STARTCHAR char57624
ENCODING 57624
SWIDTH 960 0
DWIDTH 10 0
BBX 10 10 0 -2
BITMAP
0000
0000
7F00
4100
C500
4100
7F00
0000
0000
0000
ENDCHAR
STARTCHAR char57625
ENCODING 57625
SWIDTH 960 0
DWIDTH 10 0
BBX 10 10 0 -2
BITMAP
0000
0000
7F00
4100
CD00
4100
7F00
0000
0000
0000
ENDCHAR
STARTCHAR char57626
ENCODING 57626
SWIDTH 960 0
DWIDTH 10 0
BBX 10 10 0 -2
BITMAP
0000
0000
7F00
4100
DD00
4100
7F00
0000
0000
0000
ENDCHAR
STARTCHAR char57627
ENCODING 57627
SWIDTH 960 0
DWIDTH 10 0
BBX 10 10 0 -2
BITMAP
0800
4C00
8B00
A900
A900
8B00
4C00
0800
0000
0000
ENDCHAR
STARTCHAR char57628
ENCODING 57628
SWIDTH 960 0
DWIDTH 10 0
BBX 10 10 0 -2
BITMAP
0000
0800
4C00
8B00
A900
8B00
4C00
0800
0000
0000
ENDCHAR
STARTCHAR char57629
ENCODING 57629
SWIDTH 960 0
DWIDTH 10 0
BBX 10 10 0 -2
BITMAP
2000
3000
AE00
A200
A200
AE00
3000
2000
0000
0000
ENDCHAR
STARTCHAR char57630
ENCODING 57630
SWIDTH 960 0
DWIDTH 10 0
BBX 10 10 0 -2
BITMAP
0000
2000
3000
AE00
A200
AE00
3000
2000
0000
0000
ENDCHAR
STARTCHAR char57631
ENCODING 57631
SWIDTH 960 0
DWIDTH 10 0
BBX 10 10 0 -2
BITMAP
0000
0000
0200
7F00
0200
2000
7F00
2000
0000
0000
ENDCHAR
STARTCHAR char57632
ENCODING 57632
SWIDTH 960 0
DWIDTH 10 0
BBX 10 10 0 -2
BITMAP
0000
7F00
4100
6300
5D00
4100
4100
7F00
0000
0000
ENDCHAR
STARTCHAR char57633
ENCODING 57633
SWIDTH 960 0
DWIDTH 10 0
BBX 10 10 0 -2
BITMAP
0000
7F00
3E00
5D00
6300
7F00
7F00
7F00
0000
0000
ENDCHAR
STARTCHAR char57634
ENCODING 57634
SWIDTH 960 0
DWIDTH 10 0
BBX 10 10 0 -2
BITMAP
0000
7F00
4100
6300
5D00
4100
7F00
0000
0000
0000
ENDCHAR
STARTCHAR char57635
ENCODING 57635
SWIDTH 960 0
DWIDTH 10 0
BBX 10 10 0 -2
BITMAP
0000
7F00
3E00
5D00
6300
7F00
7F00
0000
0000
0000
ENDCHAR
STARTCHAR char57636
ENCODING 57636
SWIDTH 960 0
DWIDTH 10 0
BBX 10 10 0 -2
BITMAP
0000
7F00
6300
5500
4900
4100
4100
7F00
0000
0000
ENDCHAR
STARTCHAR char57637
ENCODING 57637
SWIDTH 960 0
DWIDTH 10 0
BBX 10 10 0 -2
BITMAP
0000
7F00
6300
5500
4900
4100
7F00
0000
0000
0000
ENDCHAR
STARTCHAR char57638
ENCODING 57638
SWIDTH 960 0
DWIDTH 10 0
BBX 10 10 0 -2
BITMAP
0000
0000
7F00
6300
5D00
4100
7F00
0000
0000
0000
ENDCHAR
STARTCHAR char57639
ENCODING 57639
SWIDTH 960 0
DWIDTH 10 0
BBX 10 10 0 -2
BITMAP
0000
0000
7F00
3E00
5D00
6300
7F00
0000
0000
0000
ENDCHAR
STARTCHAR char57640
ENCODING 57640
SWIDTH 960 0
DWIDTH 10 0
BBX 10 10 0 -2
BITMAP
0000
1C00
2200
4900
4D00
4100
2200
1C00
0000
0000
ENDCHAR
STARTCHAR char57641
ENCODING 57641
SWIDTH 960 0
DWIDTH 10 0
BBX 10 10 0 -2
BITMAP
0000
0800
1400
2A00
4D00
2200
1400
0800
0000
0000
ENDCHAR
STARTCHAR char57642
ENCODING 57642
SWIDTH 960 0
DWIDTH 10 0
BBX 10 10 0 -2
BITMAP
0000
7F00
4100
4900
4D00
4100
4100
7F00
0000
0000
ENDCHAR
STARTCHAR char57643
ENCODING 57643
SWIDTH 960 0
DWIDTH 10 0
BBX 10 10 0 -2
BITMAP
0400
0E00
1F00
0400
0400
0400
0400
0400
0000
0000
ENDCHAR
STARTCHAR char57644
ENCODING 57644
SWIDTH 960 0
DWIDTH 10 0
BBX 10 10 0 -2
BITMAP
0400
0400
0400
0400
0400
1F00
0E00
0400
0000
0000
ENDCHAR
STARTCHAR char57645
ENCODING 57645
SWIDTH 960 0
DWIDTH 10 0
BBX 10 10 0 -2
BITMAP
0000
0400
0600
FF00
0600
0400
0000
0000
0000
0000
ENDCHAR
STARTCHAR char57646
ENCODING 57646
SWIDTH 960 0
DWIDTH 10 0
BBX 10 10 0 -2
BITMAP
0000
2000
6000
FF00
6000
2000
0000
0000
0000
0000
ENDCHAR
STARTCHAR char57647
ENCODING 57647
SWIDTH 960 0
DWIDTH 10 0
BBX 10 10 0 -2
BITMAP
2400
2E00
2400
2400
2400
2400
7400
2400
0000
0000
ENDCHAR
STARTCHAR char57648
ENCODING 57648
SWIDTH 960 0
DWIDTH 10 0
BBX 10 10 0 -2
BITMAP
FF00
8100
8100
8100
8100
8100
8100
FF00
0000
0000
ENDCHAR
STARTCHAR char57649
ENCODING 57649
SWIDTH 960 0
DWIDTH 10 0
BBX 10 10 0 -2
BITMAP
FF00
8900
8F00
8900
8900
8F00
8900
FF00
0000
0000
ENDCHAR
STARTCHAR char57650
ENCODING 57650
SWIDTH 960 0
DWIDTH 10 0
BBX 10 10 0 -2
BITMAP
FF00
8100
8100
8100
FF00
A500
A500
FF00
0000
0000
ENDCHAR
STARTCHAR char57651
ENCODING 57651
SWIDTH 960 0
DWIDTH 10 0
BBX 10 10 0 -2
BITMAP
FF00
8100
8100
FF00
8100
FF00
8100
FF00
0000
0000
ENDCHAR
STARTCHAR char57652
ENCODING 57652
SWIDTH 960 0
DWIDTH 10 0
BBX 10 10 0 -2
BITMAP
FF00
A500
FF00
A500
A500
FF00
A500
FF00
0000
0000
ENDCHAR
STARTCHAR char57653
ENCODING 57653
SWIDTH 960 0
DWIDTH 10 0
BBX 10 10 0 -2
BITMAP
F800
8800
8800
8B00
F900
0100
1100
1F00
0000
0000
ENDCHAR
STARTCHAR char57654
ENCODING 57654
SWIDTH 960 0
DWIDTH 10 0
BBX 10 10 0 -2
BITMAP
FF00
9100
9100
9F00
9500
9700
9500
FF00
0000
0000
ENDCHAR
STARTCHAR char57655
ENCODING 57655
SWIDTH 960 0
DWIDTH 10 0
BBX 10 10 0 -2
BITMAP
FF00
9100
9100
9F00
9500
9D00
9500
FF00
0000
0000
ENDCHAR
STARTCHAR char57656
ENCODING 57656
SWIDTH 960 0
DWIDTH 10 0
BBX 10 10 0 -2
BITMAP
FF00
9100
9F00
9100
F100
9F00
9100
FF00
0000
0000
ENDCHAR
STARTCHAR char57657
ENCODING 57657
SWIDTH 960 0
DWIDTH 10 0
BBX 10 10 0 -2
BITMAP
FF00
8900
8900
8900
FF00
A500
A500
FF00
0000
0000
ENDCHAR
STARTCHAR char57658
ENCODING 57658
SWIDTH 960 0
DWIDTH 10 0
BBX 10 10 0 -2
BITMAP
FF00
8900
8900
8900
F900
8100
8100
FF00
0000
0000
ENDCHAR
STARTCHAR char57659
ENCODING 57659
SWIDTH 960 0
DWIDTH 10 0
BBX 10 10 0 -2
BITMAP
0000
0400
0E00
1F00
0400
0400
0400
0400
0000
0000
ENDCHAR
STARTCHAR char57660
ENCODING 57660
SWIDTH 960 0
DWIDTH 10 0
BBX 10 10 0 -2
BITMAP
0000
0400
0400
0400
0400
1F00
0E00
0400
0000
0000
ENDCHAR
STARTCHAR char57661
ENCODING 57661
SWIDTH 960 0
DWIDTH 10 0
BBX 10 10 0 -2
BITMAP
0000
0000
0400
0600
7F00
0600
0400
0000
0000
0000
ENDCHAR
STARTCHAR char57662
ENCODING 57662
SWIDTH 960 0
DWIDTH 10 0
BBX 10 10 0 -2
BITMAP
0000
0000
1000
3000
7F00
3000
1000
0000
0000
0000
ENDCHAR
STARTCHAR char57663
ENCODING 57663
SWIDTH 960 0
DWIDTH 10 0
BBX 10 10 0 -2
BITMAP
0000
0000
0200
FF00
0200
4000
FF00
4000
0000
0000
ENDCHAR
STARTCHAR char57664
ENCODING 57664
SWIDTH 960 0
DWIDTH 10 0
BBX 10 10 0 -2
BITMAP
1C00
2200
5500
5500
4100
4100
6B00
5500
0000
0000
ENDCHAR
STARTCHAR char57665
ENCODING 57665
SWIDTH 960 0
DWIDTH 10 0
BBX 10 10 0 -2
BITMAP
0000
1C00
2200
5500
5500
4100
6B00
5500
0000
0000
ENDCHAR
STARTCHAR char57666
ENCODING 57666
SWIDTH 960 0
DWIDTH 10 0
BBX 10 10 0 -2
BITMAP
1C00
2200
5500
4100
4100
4100
6B00
5500
0000
0000
ENDCHAR
STARTCHAR char57667
ENCODING 57667
SWIDTH 960 0
DWIDTH 10 0
BBX 10 10 0 -2
BITMAP
0000
1C00
2200
5500
4100
4100
6B00
5500
0000
0000
ENDCHAR
STARTCHAR char57668
ENCODING 57668
SWIDTH 960 0
DWIDTH 10 0
BBX 10 10 0 -2
BITMAP
0000
0000
7F00
4100
4100
5D00
5500
5500
3F00
0000
ENDCHAR
STARTCHAR char57669
ENCODING 57669
SWIDTH 960 0
DWIDTH 10 0
BBX 10 10 0 -2
BITMAP
0000
0000
7F00
4100
4100
5D00
5D00
5D00
3F00
0000
ENDCHAR
STARTCHAR char57670
ENCODING 57670
SWIDTH 960 0
DWIDTH 10 0
BBX 10 10 0 -2
BITMAP
0000
7F80
4080
4080
4080
5E80
5280
5280
3F80
0000
ENDCHAR
STARTCHAR char57671
ENCODING 57671
SWIDTH 960 0
DWIDTH 10 0
BBX 10 10 0 -2
BITMAP
0000
7F80
4080
4080
4080
5E80
5680
5680
3F80
0000
ENDCHAR
STARTCHAR char57672
ENCODING 57672
SWIDTH 960 0
DWIDTH 10 0
BBX 10 10 0 -2
BITMAP
0000
0000
1C00
1C00
7F00
7F00
5500
7F00
7F00
0000
ENDCHAR
STARTCHAR char57673
ENCODING 57673
SWIDTH 960 0
DWIDTH 10 0
BBX 10 10 0 -2
BITMAP
1C00
1C00
7F00
7F00
7F00
5500
7F00
7F00
0000
0000
ENDCHAR
STARTCHAR char57674
ENCODING 57674
SWIDTH 960 0
DWIDTH 10 0
BBX 10 10 0 -2
BITMAP
0000
FF00
8100
8100
8100
FF00
1800
7E00
0000
0000
ENDCHAR
STARTCHAR char57675
ENCODING 57675
SWIDTH 960 0
DWIDTH 10 0
BBX 10 10 0 -2
BITMAP
3F00
3F00
0000
1E00
1E00
0000
0C00
0C00
0000
0000
ENDCHAR
STARTCHAR char57676
ENCODING 57676
SWIDTH 960 0
DWIDTH 10 0
BBX 10 10 0 -2
BITMAP
0000
0300
1B00
DB00
DB00
1B00
0300
0000
0000
0000
ENDCHAR
STARTCHAR char57677
ENCODING 57677
SWIDTH 960 0
DWIDTH 10 0
BBX 10 10 0 -2
BITMAP
0000
3C00
6E00
FC00
F800
F000
7E00
3C00
0000
0000
ENDCHAR
STARTCHAR char57678
ENCODING 57678
SWIDTH 960 0
DWIDTH 10 0
BBX 10 10 0 -2
BITMAP
0000
0300
0F00
3F00
7F00
3F00
0F00
0300
0000
0000
ENDCHAR
STARTCHAR char57679
ENCODING 57679
SWIDTH 960 0
DWIDTH 10 0
BBX 10 10 0 -2
BITMAP
0000
6000
7800
7E00
7F00
7E00
7800
6000
0000
0000
ENDCHAR
STARTCHAR char57680
ENCODING 57680
SWIDTH 960 0
DWIDTH 10 0
BBX 10 10 0 -2
BITMAP
0000
1800
2C00
6E00
E300
7E00
3C00
1800
0000
0000
ENDCHAR
STARTCHAR char57681
ENCODING 57681
SWIDTH 960 0
DWIDTH 10 0
BBX 10 10 0 -2
BITMAP
0000
1C00
3600
7700
7100
7F00
3E00
1C00
0000
0000
ENDCHAR
STARTCHAR char57682
ENCODING 57682
SWIDTH 960 0
DWIDTH 10 0
BBX 10 10 0 -2
BITMAP
0000
1000
3200
F100
F500
F100
3200
1000
0000
0000
ENDCHAR
STARTCHAR char57683
ENCODING 57683
SWIDTH 960 0
DWIDTH 10 0
BBX 10 10 0 -2
BITMAP
1800
3C00
7E00
FF00
FF00
7E00
1800
3C00
0000
0000
ENDCHAR
STARTCHAR char57684
ENCODING 57684
SWIDTH 960 0
DWIDTH 10 0
BBX 10 10 0 -2
BITMAP
0000
1800
3C00
7E00
FF00
7E00
1800
3C00
0000
0000
ENDCHAR
STARTCHAR char57685
ENCODING 57685
SWIDTH 960 0
DWIDTH 10 0
BBX 10 10 0 -2
BITMAP
0000
1800
3C00
7E00
FF00
3C00
3C00
3C00
0000
0000
ENDCHAR
STARTCHAR char57686
ENCODING 57686
SWIDTH 960 0
DWIDTH 10 0
BBX 10 10 0 -2
BITMAP
0000
3C00
3C00
3C00
FF00
7E00
3C00
1800
0000
0000
ENDCHAR
STARTCHAR char57687
ENCODING 57687
SWIDTH 960 0
DWIDTH 10 0
BBX 10 10 0 -2
BITMAP
0000
0800
0C00
7E00
7F00
7E00
0C00
0800
0000
0000
ENDCHAR
STARTCHAR char57688
ENCODING 57688
SWIDTH 960 0
DWIDTH 10 0
BBX 10 10 0 -2
BITMAP
0000
1000
3000
7E00
FE00
7E00
3000
1000
0000
0000
ENDCHAR
STARTCHAR char57689
ENCODING 57689
SWIDTH 960 0
DWIDTH 10 0
BBX 10 10 0 -2
BITMAP
0000
1800
3C00
7E00
FF00
0000
FF00
0000
0000
0000
ENDCHAR
STARTCHAR char57690
ENCODING 57690
SWIDTH 960 0
DWIDTH 10 0
BBX 10 10 0 -2
BITMAP
0000
0800
1C00
3E00
7F00
0000
7F00
0000
0000
0000
ENDCHAR
STARTCHAR char57691
ENCODING 57691
SWIDTH 960 0
DWIDTH 10 0
BBX 10 10 0 -2
BITMAP
0000
0000
FE00
8200
8300
8300
8200
FE00
0000
0000
ENDCHAR
STARTCHAR char57692
ENCODING 57692
SWIDTH 960 0
DWIDTH 10 0
BBX 10 10 0 -2
BITMAP
0000
0000
FE00
8200
A300
B300
8200
FE00
0000
0000
ENDCHAR
STARTCHAR char57693
ENCODING 57693
SWIDTH 960 0
DWIDTH 10 0
BBX 10 10 0 -2
BITMAP
0000
0000
FE00
8200
B300
BB00
8200
FE00
0000
0000
ENDCHAR
STARTCHAR char57694
ENCODING 57694
SWIDTH 960 0
DWIDTH 10 0
BBX 10 10 0 -2
BITMAP
0000
0000
FE00
8200
BB00
BB00
8200
FE00
0000
0000
ENDCHAR
STARTCHAR char57695
ENCODING 57695
SWIDTH 960 0
DWIDTH 10 0
BBX 10 10 0 -2
BITMAP
0000
1C00
3600
3600
3E00
3600
3600
1C00
0000
0000
ENDCHAR
STARTCHAR char57696
ENCODING 57696
SWIDTH 960 0
DWIDTH 10 0
BBX 10 10 0 -2
BITMAP
0000
0C00
1C00
0C00
0C00
0C00
0C00
1E00
0000
0000
ENDCHAR
STARTCHAR char57697
ENCODING 57697
SWIDTH 960 0
DWIDTH 10 0
BBX 10 10 0 -2
BITMAP
0000
1C00
3600
0600
0C00
1800
3000
3E00
0000
0000
ENDCHAR
STARTCHAR char57698
ENCODING 57698
SWIDTH 960 0
DWIDTH 10 0
BBX 10 10 0 -2
BITMAP
0000
1C00
3600
0600
1C00
0600
3600
1C00
0000
0000
ENDCHAR
STARTCHAR char57699
ENCODING 57699
SWIDTH 960 0
DWIDTH 10 0
BBX 10 10 0 -2
BITMAP
0000
0600
0E00
1600
2600
3F00
0600
0600
0000
0000
ENDCHAR
STARTCHAR char57700
ENCODING 57700
SWIDTH 960 0
DWIDTH 10 0
BBX 10 10 0 -2
BITMAP
0000
3E00
3000
3C00
0600
0600
3600
1C00
0000
0000
ENDCHAR
STARTCHAR char57701
ENCODING 57701
SWIDTH 960 0
DWIDTH 10 0
BBX 10 10 0 -2
BITMAP
0000
0C00
1800
3000
3C00
3600
3600
1C00
0000
0000
ENDCHAR
STARTCHAR char57702
ENCODING 57702
SWIDTH 960 0
DWIDTH 10 0
BBX 10 10 0 -2
BITMAP
0000
3E00
0600
0C00
0C00
1800
1800
1800
0000
0000
ENDCHAR
STARTCHAR char57703
ENCODING 57703
SWIDTH 960 0
DWIDTH 10 0
BBX 10 10 0 -2
BITMAP
0000
1C00
3600
3600
1C00
3600
3600
1C00
0000
0000
ENDCHAR
STARTCHAR char57704
ENCODING 57704
SWIDTH 960 0
DWIDTH 10 0
BBX 10 10 0 -2
BITMAP
0000
1C00
3600
3600
1E00
0600
0C00
1800
0000
0000
ENDCHAR
STARTCHAR char57705
ENCODING 57705
SWIDTH 960 0
DWIDTH 10 0
BBX 10 10 0 -2
BITMAP
3C00
6600
6600
6E00
7600
6600
6600
3C00
0000
0000
ENDCHAR
STARTCHAR char57706
ENCODING 57706
SWIDTH 960 0
DWIDTH 10 0
BBX 10 10 0 -2
BITMAP
1800
3800
1800
1800
1800
1800
1800
3C00
0000
0000
ENDCHAR
STARTCHAR char57707
ENCODING 57707
SWIDTH 960 0
DWIDTH 10 0
BBX 10 10 0 -2
BITMAP
3C00
6600
0600
0C00
1800
3000
6000
7E00
0000
0000
ENDCHAR
STARTCHAR char57708
ENCODING 57708
SWIDTH 960 0
DWIDTH 10 0
BBX 10 10 0 -2
BITMAP
3C00
6600
0600
1C00
0600
0600
6600
3C00
0000
0000
ENDCHAR
STARTCHAR char57709
ENCODING 57709
SWIDTH 960 0
DWIDTH 10 0
BBX 10 10 0 -2
BITMAP
0C00
1C00
2C00
4C00
7E00
0C00
0C00
0C00
0000
0000
ENDCHAR
STARTCHAR char57710
ENCODING 57710
SWIDTH 960 0
DWIDTH 10 0
BBX 10 10 0 -2
BITMAP
7E00
6000
6000
7C00
0600
0600
6600
3C00
0000
0000
ENDCHAR
STARTCHAR char57711
ENCODING 57711
SWIDTH 960 0
DWIDTH 10 0
BBX 10 10 0 -2
BITMAP
1C00
3000
6000
7C00
6600
6600
6600
3C00
0000
0000
ENDCHAR
STARTCHAR char57712
ENCODING 57712
SWIDTH 960 0
DWIDTH 10 0
BBX 10 10 0 -2
BITMAP
7E00
0600
0600
0C00
0C00
1800
1800
1800
0000
0000
ENDCHAR
STARTCHAR char57713
ENCODING 57713
SWIDTH 960 0
DWIDTH 10 0
BBX 10 10 0 -2
BITMAP
3C00
6600
6600
3C00
6600
6600
6600
3C00
0000
0000
ENDCHAR
STARTCHAR char57714
ENCODING 57714
SWIDTH 960 0
DWIDTH 10 0
BBX 10 10 0 -2
BITMAP
3C00
6600
6600
6600
3E00
0600
0C00
3800
0000
0000
ENDCHAR
STARTCHAR char57715
ENCODING 57715
SWIDTH 960 0
DWIDTH 10 0
BBX 10 10 0 -2
BITMAP
0000
7E00
6600
6E00
7E00
7600
6600
7E00
0000
0000
ENDCHAR
STARTCHAR char57716
ENCODING 57716
SWIDTH 960 0
DWIDTH 10 0
BBX 10 10 0 -2
BITMAP
0000
0C00
1C00
0C00
0C00
0C00
0C00
0C00
0000
0000
ENDCHAR
STARTCHAR char57717
ENCODING 57717
SWIDTH 960 0
DWIDTH 10 0
BBX 10 10 0 -2
BITMAP
0000
7E00
0600
0600
7E00
6000
6000
7E00
0000
0000
ENDCHAR
STARTCHAR char57718
ENCODING 57718
SWIDTH 960 0
DWIDTH 10 0
BBX 10 10 0 -2
BITMAP
0000
7E00
0600
0600
7E00
0600
0600
7E00
0000
0000
ENDCHAR
STARTCHAR char57719
ENCODING 57719
SWIDTH 960 0
DWIDTH 10 0
BBX 10 10 0 -2
BITMAP
0000
6600
6600
6600
7E00
0600
0600
0600
0000
0000
ENDCHAR
STARTCHAR char57720
ENCODING 57720
SWIDTH 960 0
DWIDTH 10 0
BBX 10 10 0 -2
BITMAP
0000
7E00
6000
6000
7E00
0600
0600
7E00
0000
0000
ENDCHAR
STARTCHAR char57721
ENCODING 57721
SWIDTH 960 0
DWIDTH 10 0
BBX 10 10 0 -2
BITMAP
0000
7E00
6000
6000
7E00
6600
6600
7E00
0000
0000
ENDCHAR
STARTCHAR char57722
ENCODING 57722
SWIDTH 960 0
DWIDTH 10 0
BBX 10 10 0 -2
BITMAP
0000
7E00
0600
0600
0600
0600
0600
0600
0000
0000
ENDCHAR
STARTCHAR char57723
ENCODING 57723
SWIDTH 960 0
DWIDTH 10 0
BBX 10 10 0 -2
BITMAP
0000
7E00
6600
6600
3C00
6600
6600
7E00
0000
0000
ENDCHAR
STARTCHAR char57724
ENCODING 57724
SWIDTH 960 0
DWIDTH 10 0
BBX 10 10 0 -2
BITMAP
0000
7E00
6600
6600
7E00
0600
0600
0600
0000
0000
ENDCHAR
STARTCHAR char57725
ENCODING 57725
SWIDTH 960 0
DWIDTH 10 0
BBX 10 10 0 -2
BITMAP
7E00
6600
6E00
6E00
7600
7600
6600
7E00
0000
0000
ENDCHAR
STARTCHAR char57726
ENCODING 57726
SWIDTH 960 0
DWIDTH 10 0
BBX 10 10 0 -2
BITMAP
0C00
1C00
3C00
0C00
0C00
0C00
0C00
0C00
0000
0000
ENDCHAR
STARTCHAR char57727
ENCODING 57727
SWIDTH 960 0
DWIDTH 10 0
BBX 10 10 0 -2
BITMAP
7E00
0600
0600
7E00
6000
6000
6000
7E00
0000
0000
ENDCHAR
STARTCHAR char57728
ENCODING 57728
SWIDTH 960 0
DWIDTH 10 0
BBX 10 10 0 -2
BITMAP
7E00
0600
0600
7E00
0600
0600
0600
7E00
0000
0000
ENDCHAR
STARTCHAR char57729
ENCODING 57729
SWIDTH 960 0
DWIDTH 10 0
BBX 10 10 0 -2
BITMAP
6600
6600
6600
7E00
0600
0600
0600
0600
0000
0000
ENDCHAR
STARTCHAR char57730
ENCODING 57730
SWIDTH 960 0
DWIDTH 10 0
BBX 10 10 0 -2
BITMAP
7E00
6000
6000
7E00
0600
0600
0600
7E00
0000
0000
ENDCHAR
STARTCHAR char57731
ENCODING 57731
SWIDTH 960 0
DWIDTH 10 0
BBX 10 10 0 -2
BITMAP
7E00
6000
6000
7E00
6600
6600
6600
7E00
0000
0000
ENDCHAR
STARTCHAR char57732
ENCODING 57732
SWIDTH 960 0
DWIDTH 10 0
BBX 10 10 0 -2
BITMAP
7E00
0600
0600
0600
0600
0600
0600
0600
0000
0000
ENDCHAR
STARTCHAR char57733
ENCODING 57733
SWIDTH 960 0
DWIDTH 10 0
BBX 10 10 0 -2
BITMAP
7E00
6600
6600
3C00
6600
6600
6600
7E00
0000
0000
ENDCHAR
STARTCHAR char57734
ENCODING 57734
SWIDTH 960 0
DWIDTH 10 0
BBX 10 10 0 -2
BITMAP
7E00
6600
6600
7E00
0600
0600
0600
0600
0000
0000
ENDCHAR
STARTCHAR char57735
ENCODING 57735
SWIDTH 960 0
DWIDTH 10 0
BBX 10 10 0 -2
BITMAP
0000
7F00
7700
6700
7700
7700
7700
6300
7F00
0000
ENDCHAR
STARTCHAR char57736
ENCODING 57736
SWIDTH 960 0
DWIDTH 10 0
BBX 10 10 0 -2
BITMAP
0000
7F00
6300
5D00
7B00
7700
6F00
4100
7F00
0000
ENDCHAR
STARTCHAR char57737
ENCODING 57737
SWIDTH 960 0
DWIDTH 10 0
BBX 10 10 0 -2
BITMAP
0000
7F00
6300
5D00
7300
7D00
5D00
6300
7F00
0000
ENDCHAR
STARTCHAR char57738
ENCODING 57738
SWIDTH 960 0
DWIDTH 10 0
BBX 10 10 0 -2
BITMAP
0000
7F00
7B00
7300
6B00
4100
7B00
7B00
7F00
0000
ENDCHAR
STARTCHAR char57739
ENCODING 57739
SWIDTH 960 0
DWIDTH 10 0
BBX 10 10 0 -2
BITMAP
0000
7F00
4100
5F00
4300
7D00
5D00
6300
7F00
0000
ENDCHAR
STARTCHAR char57740
ENCODING 57740
SWIDTH 960 0
DWIDTH 10 0
BBX 10 10 0 -2
BITMAP
0000
7F00
6300
5F00
4300
5D00
5D00
6300
7F00
0000
ENDCHAR
STARTCHAR char57741
ENCODING 57741
SWIDTH 960 0
DWIDTH 10 0
BBX 10 10 0 -2
BITMAP
0000
7F00
4100
7D00
7B00
7B00
7700
7700
7F00
0000
ENDCHAR
STARTCHAR char57742
ENCODING 57742
SWIDTH 960 0
DWIDTH 10 0
BBX 10 10 0 -2
BITMAP
0000
7F00
6300
5D00
6300
5D00
5D00
6300
7F00
0000
ENDCHAR
STARTCHAR char57743
ENCODING 57743
SWIDTH 960 0
DWIDTH 10 0
BBX 10 10 0 -2
BITMAP
0000
7F00
6300
5D00
5D00
6100
7D00
6300
7F00
0000
ENDCHAR
STARTCHAR char57744
ENCODING 57744
SWIDTH 960 0
DWIDTH 10 0
BBX 10 10 0 -2
BITMAP
0000
0000
0000
1800
3C00
3C00
1800
0000
0000
0000
ENDCHAR
STARTCHAR char57745
ENCODING 57745
SWIDTH 960 0
DWIDTH 10 0
BBX 10 10 0 -2
BITMAP
0000
0000
1800
3C00
3C00
1800
0000
0000
0000
0000
ENDCHAR
STARTCHAR char57746
ENCODING 57746
SWIDTH 960 0
DWIDTH 10 0
BBX 10 10 0 -2
BITMAP
0000
0000
1800
1800
0000
1800
1800
0000
0000
0000
ENDCHAR
STARTCHAR char57747
ENCODING 57747
SWIDTH 960 0
DWIDTH 10 0
BBX 10 10 0 -2
BITMAP
0000
1800
1800
0000
0000
1800
1800
0000
0000
0000
ENDCHAR
STARTCHAR char57748
ENCODING 57748
SWIDTH 960 0
DWIDTH 10 0
BBX 10 10 0 -2
BITMAP
0000
0000
6600
6600
0000
6600
6600
0000
0000
0000
ENDCHAR
STARTCHAR char57749
ENCODING 57749
SWIDTH 960 0
DWIDTH 10 0
BBX 10 10 0 -2
BITMAP
0000
6600
6600
0000
0000
6600
6600
0000
0000
0000
ENDCHAR
STARTCHAR char57750
ENCODING 57750
SWIDTH 960 0
DWIDTH 10 0
BBX 10 10 0 -2
BITMAP
6600
6600
0000
6600
6600
0000
6600
6600
0000
0000
ENDCHAR
STARTCHAR char57751
ENCODING 57751
SWIDTH 960 0
DWIDTH 10 0
BBX 10 10 0 -2
BITMAP
0500
0500
5700
7200
7200
2200
7E00
7200
0000
0000
ENDCHAR
STARTCHAR char57752
ENCODING 57752
SWIDTH 960 0
DWIDTH 10 0
BBX 10 10 0 -2
BITMAP
0200
8D00
7500
7700
7200
2200
7E00
7200
0000
0000
ENDCHAR
STARTCHAR char57753
ENCODING 57753
SWIDTH 960 0
DWIDTH 10 0
BBX 10 10 0 -2
BITMAP
0500
8D00
7700
7200
7200
2200
7E00
7200
0000
0000
ENDCHAR
STARTCHAR char57754
ENCODING 57754
SWIDTH 960 0
DWIDTH 10 0
BBX 10 10 0 -2
BITMAP
8100
8100
FF00
5A00
DB00
FF00
4200
7E00
0000
0000
ENDCHAR
STARTCHAR char57755
ENCODING 57755
SWIDTH 960 0
DWIDTH 10 0
BBX 10 10 0 -2
BITMAP
7E00
FF00
FF00
FF00
FE00
C000
C000
6000
0000
0000
ENDCHAR
STARTCHAR char57756
ENCODING 57756
SWIDTH 960 0
DWIDTH 10 0
BBX 10 10 0 -2
BITMAP
F800
8800
9F00
F100
3100
3F00
2400
FF00
0000
0000
ENDCHAR
STARTCHAR char57757
ENCODING 57757
SWIDTH 960 0
DWIDTH 10 0
BBX 10 10 0 -2
BITMAP
4200
2400
7E00
5A00
FF00
A500
BD00
2400
0000
0000
ENDCHAR
STARTCHAR char57758
ENCODING 57758
SWIDTH 960 0
DWIDTH 10 0
BBX 10 10 0 -2
BITMAP
FF00
FF00
1800
1800
FF00
DB00
C300
FF00
0000
0000
ENDCHAR
STARTCHAR char57759
ENCODING 57759
SWIDTH 960 0
DWIDTH 10 0
BBX 10 10 0 -2
BITMAP
7E00
FF00
FF00
FF00
7F00
0600
0400
0800
0000
0000
ENDCHAR
STARTCHAR char57792
ENCODING 57792
SWIDTH 960 0
DWIDTH 10 0
BBX 10 10 0 -2
BITMAP
0000
FFC0
0000
0000
0000
0000
0000
0000
0000
FFC0
ENDCHAR
STARTCHAR char57793
ENCODING 57793
SWIDTH 960 0
DWIDTH 10 0
BBX 10 10 0 -2
BITMAP
0000
FFC0
0000
8000
8000
8000
8000
8000
0000
FFC0
ENDCHAR
STARTCHAR char57794
ENCODING 57794
SWIDTH 960 0
DWIDTH 10 0
BBX 10 10 0 -2
BITMAP
0000
FFC0
0000
C000
C000
C000
C000
C000
0000
FFC0
ENDCHAR
STARTCHAR char57795
ENCODING 57795
SWIDTH 960 0
DWIDTH 10 0
BBX 10 10 0 -2
BITMAP
0000
FFC0
0000
E000
E000
E000
E000
E000
0000
FFC0
ENDCHAR
STARTCHAR char57796
ENCODING 57796
SWIDTH 960 0
DWIDTH 10 0
BBX 10 10 0 -2
BITMAP
0000
FFC0
0000
F000
F000
F000
F000
F000
0000
FFC0
ENDCHAR
STARTCHAR char57797
ENCODING 57797
SWIDTH 960 0
DWIDTH 10 0
BBX 10 10 0 -2
BITMAP
0000
FFC0
0000
F800
F800
F800
F800
F800
0000
FFC0
ENDCHAR
STARTCHAR char57798
ENCODING 57798
SWIDTH 960 0
DWIDTH 10 0
BBX 10 10 0 -2
BITMAP
0000
FFC0
0000
FC00
FC00
FC00
FC00
FC00
0000
FFC0
ENDCHAR
STARTCHAR char57799
ENCODING 57799
SWIDTH 960 0
DWIDTH 10 0
BBX 10 10 0 -2
BITMAP
0000
FFC0
0000
FE00
FE00
FE00
FE00
FE00
0000
FFC0
ENDCHAR
STARTCHAR char57800
ENCODING 57800
SWIDTH 960 0
DWIDTH 10 0
BBX 10 10 0 -2
BITMAP
0000
FFC0
0000
FF00
FF00
FF00
FF00
FF00
0000
FFC0
ENDCHAR
STARTCHAR char57801
ENCODING 57801
SWIDTH 960 0
DWIDTH 10 0
BBX 10 10 0 -2
BITMAP
0000
FFC0
0000
FF80
FF80
FF80
FF80
FF80
0000
FFC0
ENDCHAR
STARTCHAR char57802
ENCODING 57802
SWIDTH 960 0
DWIDTH 10 0
BBX 10 10 0 -2
BITMAP
0000
FFC0
0000
FFC0
FFC0
FFC0
FFC0
FFC0
0000
FFC0
ENDCHAR
STARTCHAR char57803
ENCODING 57803
SWIDTH 960 0
DWIDTH 10 0
BBX 10 10 0 -2
BITMAP
0000
00C0
0080
0080
0080
0080
0080
0080
0080
00C0
ENDCHAR
STARTCHAR char57804
ENCODING 57804
SWIDTH 960 0
DWIDTH 10 0
BBX 10 10 0 -2
BITMAP
0000
C000
4000
4000
4000
4000
4000
4000
4000
C000
ENDCHAR
ENDFONT
